<?xml version="1.0" encoding="utf-8"?>
<!-- Generator: Adobe Illustrator 17.0.0, SVG Export Plug-In . SVG Version: 6.00 Build 0)  -->
<!DOCTYPE svg PUBLIC "-//W3C//DTD SVG 1.1//EN" "http://www.w3.org/Graphics/SVG/1.1/DTD/svg11.dtd">
<svg version="1.1" id="Layer_1" xmlns="http://www.w3.org/2000/svg" xmlns:xlink="http://www.w3.org/1999/xlink" x="0px" y="0px"
	 width="32px" height="32px" viewBox="0 0 32 32" enable-background="new 0 0 32 32" xml:space="preserve">
<path opacity="0.1" d="M18.13,2.24L18.13,2.24c-7.853,0-12.797,2.706-12.466,4.88c0.096,0.621,0.36,2.312,0.694,4.44
	c-3.848,1.494-5.123,3.915-4.952,5.891c0.202,2.338,2.306,4.84,6.925,5.274c2.637,0.245,5.81-1.2,7.867-3.672
	c-0.197-0.333-0.309-0.717-0.309-1.131c0-1.237,1.002-2.24,2.238-2.24s2.24,1.003,2.24,2.24c0,1.219-0.976,2.21-2.189,2.237
	c-2.448,3.157-6.174,5.061-9.704,4.838c0.082,0.52,0.114,0.717,0.154,0.981c0.146,0.925,3.755,3.776,9.499,3.781h0.002
	c5.744-0.005,9.355-2.856,9.499-3.781c0.142-0.92,2.627-16.65,2.963-18.858c0.333-2.173-4.613-4.88-12.462-4.88L18.13,2.24z
	 M3.638,17.256c-0.088-1.027,0.728-2.395,3.077-3.422c0.338,2.146,0.706,4.475,1.029,6.52C5.178,19.85,3.747,18.512,3.638,17.256z
	 M18.128,10.438c-5.744-0.003-9.819-2.136-9.819-2.931c-0.003-0.792,4.075-2.928,9.819-2.925c5.744-0.003,9.824,2.133,9.821,2.925
	C27.949,8.302,23.874,10.435,18.128,10.438z"/>
</svg>
