<?xml version="1.0" encoding="utf-8"?>
<!-- Generator: Adobe Illustrator 16.0.0, SVG Export Plug-In . SVG Version: 6.00 Build 0)  -->
<!DOCTYPE svg PUBLIC "-//W3C//DTD SVG 1.1//EN" "http://www.w3.org/Graphics/SVG/1.1/DTD/svg11.dtd">
<svg version="1.1" id="Layer_1" xmlns="http://www.w3.org/2000/svg" xmlns:xlink="http://www.w3.org/1999/xlink" x="0px" y="0px"
	 width="100px" height="100px" viewBox="0 0 100 100" enable-background="new 0 0 100 100" xml:space="preserve">
<g>
	<path fill="#C4C6C8" d="M45,14.384C45,9.201,40.798,5,35.615,5h-24.23C6.202,5,2,9.201,2,14.384v24.232
		C2,43.799,6.202,48,11.385,48h24.23C40.798,48,45,43.799,45,38.616V14.384z M35.832,29H12.566c-1.187,0-2.15-1.312-2.15-2.5
		s0.963-2.5,2.15-2.5h23.266c1.187,0,2.15,1.312,2.15,2.5S37.018,29,35.832,29z"/>
</g>
<g>
	<path fill="#C4C6C8" d="M46,61.384C46,56.201,41.798,52,36.615,52h-24.23C7.202,52,3,56.201,3,61.384v24.232
		C3,90.799,7.202,95,12.385,95h24.23C41.798,95,46,90.799,46,85.616V61.384z M35.832,76H26v9.159c0,1.188-0.812,2.149-2.001,2.149
		c-1.187,0-1.999-0.962-1.999-2.149V76h-9.434c-1.187,0-2.15-1.312-2.15-2.501c0-1.187,0.963-2.499,2.15-2.499H22v-9.105
		c0-1.188,0.812-2.15,1.999-2.15c1.188,0,2.001,0.963,2.001,2.15V71h9.832c1.187,0,2.15,1.312,2.15,2.499
		C37.981,74.688,37.018,76,35.832,76z"/>
</g>
<g>
	<path fill="#C4C6C8" d="M89.152,5H59.437C54.254,5,50,8.841,50,13.936v72.066C50,91.098,54.254,95,59.437,95h29.716
		C94.335,95,99,91.098,99,86.002V13.936C99,8.841,94.335,5,89.152,5z M85.926,56H62.662c-1.187,0-2.149-0.812-2.149-2
		s0.963-2,2.149-2h23.264c1.189,0,2.151,0.812,2.151,2S87.115,56,85.926,56z M85.926,45H62.662c-1.187,0-2.149-0.812-2.149-2
		s0.963-2,2.149-2h23.264c1.189,0,2.151,0.812,2.151,2S87.115,45,85.926,45z"/>
</g>
</svg>
