<?xml version="1.0" encoding="utf-8"?>
<!-- Generator: Adobe Illustrator 16.0.0, SVG Export Plug-In . SVG Version: 6.00 Build 0)  -->
<!DOCTYPE svg PUBLIC "-//W3C//DTD SVG 1.1//EN" "http://www.w3.org/Graphics/SVG/1.1/DTD/svg11.dtd">
<svg version="1.1" id="Layer_1" xmlns="http://www.w3.org/2000/svg" xmlns:xlink="http://www.w3.org/1999/xlink" x="0px" y="0px"
	 width="300px" height="300px" viewBox="0 0 300 300" enable-background="new 0 0 300 300" xml:space="preserve">
<g>
	<path fill="#B3B3B3" d="M151.338,14.8c-74.557,0-134.996,60.44-134.996,135.002c0,74.554,60.439,134.998,134.996,134.998
		s135.004-60.442,135.004-134.998C286.342,75.241,225.895,14.8,151.338,14.8z M151.338,265.714
		c-64.013,0-115.908-51.901-115.908-115.912c0-64.018,51.895-115.911,115.908-115.911c64.016,0,115.909,51.894,115.909,115.911
		C267.247,213.812,215.354,265.714,151.338,265.714z"/>
	<g>
		<path fill="#B3B3B3" d="M151.341,45.374c-57.674,0-104.428,46.754-104.428,104.428c0,57.675,46.754,104.429,104.428,104.429
			c57.675,0,104.429-46.754,104.429-104.429C255.77,92.128,209.016,45.374,151.341,45.374z M213.878,180.6l-31.747,31.744
			l-30.793-30.797l-30.797,30.797L88.799,180.6l30.787-30.798l-30.787-30.789l31.742-31.757l30.797,30.802l30.793-30.802
			l31.747,31.757l-30.801,30.789L213.878,180.6z"/>
	</g>
</g>
</svg>
