<?xml version="1.0" encoding="utf-8"?>
<!-- Generator: Adobe Illustrator 16.0.0, SVG Export Plug-In . SVG Version: 6.00 Build 0)  -->
<!DOCTYPE svg PUBLIC "-//W3C//DTD SVG 1.1//EN" "http://www.w3.org/Graphics/SVG/1.1/DTD/svg11.dtd">
<svg version="1.1" xmlns="http://www.w3.org/2000/svg" xmlns:xlink="http://www.w3.org/1999/xlink" x="0px" y="0px"
	 width="771.023px" height="453.543px" viewBox="0 0 771.023 453.543" enable-background="new 0 0 771.023 453.543"
	 xml:space="preserve">
<g id="Frame">
	<rect fill="none" width="771.023" height="453.543"/>
</g>
<g id="JUB">
	<g>
		<path d="M430.153,90.709h36.767v190.534c0,72.027-13.733,87.261-53.245,87.261c-9.892,0-16.73-1.239-22.493-3.299l3.719-35.873
			c4.528,1.644,8.478,2.054,14.655,2.054c11.31,0,20.597-8.98,20.597-48.5V90.709z"/>
		<path d="M521.652,90.709v185.929c0,44.842,1.368,54.749,9.246,54.749c7.879,0,10.076-9.492,10.076-54.749V90.709h35.775v172.426
			c0,71.617,1.905,105.369-45.851,105.369c-50.646,0-46-34.571-46-103.325V90.709H521.652z"/>
		<path d="M630.18,334.166c0,0,1.829,0.462,4.359,0.462c13.621,0,16.525-15.922,16.525-47.354c0-32.25-2.767-45.378-16.182-45.378
			h-4.703V334.166z M630.18,197.936h4.703c10.05,0,12.324-9.866,12.324-34.755c0-25.204-4.241-40.013-12.596-40.013
			c-3.883,0-4.432,0.848-4.432,0.848V197.936z M594.63,90.731c0,0,15.373-0.63,38.604-0.63c38.249,0,48.013,27.774,48.013,63.494
			c0,32.026-3.084,53.511-29.833,64.932v1.219c31.692,5.304,34.571,33.906,34.571,71.054c0,41.766-8.852,77.704-53.341,77.704
			c-27.358,0-38.014-4.253-38.014-4.253V90.731z"/>
	</g>
	<path fill="#FF0000" d="M345.827,85.04H228.465c-6.782,25.903-2.631,54.499,13.827,78.222l0.036,0.052l29.395,42.341
		c9.203,13.741,14.577,30.265,14.577,48.046c0,47.749-38.707,86.456-86.457,86.456c-47.749,0-86.457-38.708-86.457-86.456
		c0-33.562,19.136-62.635,47.08-76.962c0.627-0.313,1.25-0.632,1.87-0.958c31.592-16.607,53.14-49.737,53.14-87.907
		c0-0.949-0.016-1.893-0.043-2.835H113.386c-15.655,0-28.346,12.691-28.346,28.346v226.771c0,15.656,12.691,28.347,28.346,28.347
		h232.441c15.656,0,28.347-12.691,28.347-28.347V113.386C374.174,97.73,361.483,85.04,345.827,85.04z"/>
	<path fill="#FFFFFF" d="M228.465,85.04c-6.782,25.903-2.631,54.499,13.827,78.222l0.036,0.052l29.395,42.341
		c9.203,13.741,14.577,30.265,14.577,48.046c0,47.749-38.707,86.456-86.457,86.456c-47.749,0-86.457-38.708-86.457-86.456
		c0-33.562,19.136-62.635,47.08-76.962c0.627-0.313,1.25-0.632,1.87-0.958c31.592-16.607,53.14-49.737,53.14-87.907
		c0-0.949-0.016-1.893-0.043-2.835H228.465z"/>
</g>
</svg>
