<?xml version="1.0" encoding="utf-8"?>
<!-- Generator: Adobe Illustrator 16.0.0, SVG Export Plug-In . SVG Version: 6.00 Build 0)  -->
<!DOCTYPE svg PUBLIC "-//W3C//DTD SVG 1.1//EN" "http://www.w3.org/Graphics/SVG/1.1/DTD/svg11.dtd">
<svg version="1.1" id="Layer_2" xmlns="http://www.w3.org/2000/svg" xmlns:xlink="http://www.w3.org/1999/xlink" x="0px" y="0px"
	 width="22px" height="22px" viewBox="0 0 22 22" enable-background="new 0 0 22 22" xml:space="preserve">
<g>
	<path fill="#999999" d="M17-0.021H5c-2.762,0-5,2.282-5,5.097v11.85c0,2.815,2.238,5.097,5,5.097h12c2.762,0,5-2.281,5-5.097V5.075
		C22,2.261,19.762-0.021,17-0.021z M11.562,4.355c0.689,0,1.25,0.56,1.25,1.25c0,0.689-0.561,1.25-1.25,1.25s-1.25-0.561-1.25-1.25
		C10.312,4.915,10.873,4.355,11.562,4.355z M14.312,16.855h-5.5v-1h1.5v-7h-1.5v-1h4v8h1.5V16.855z"/>
</g>
</svg>
