<?xml version="1.0" encoding="utf-8"?>
<!-- Generator: Adobe Illustrator 16.0.3, SVG Export Plug-In . SVG Version: 6.00 Build 0)  -->
<!DOCTYPE svg PUBLIC "-//W3C//DTD SVG 1.1//EN" "http://www.w3.org/Graphics/SVG/1.1/DTD/svg11.dtd">
<svg version="1.1" id="Graphics" xmlns="http://www.w3.org/2000/svg" xmlns:xlink="http://www.w3.org/1999/xlink" x="0px" y="0px"
	 width="388px" height="477.333px" viewBox="50.5 108.804 388 477.333" enable-background="new 50.5 108.804 388 477.333"
	 xml:space="preserve">
<linearGradient id="SVGID_1_" gradientUnits="userSpaceOnUse" x1="102.061" y1="286.2522" x2="381.8052" y2="286.2522" gradientTransform="matrix(1 0 0 -1 0.04 594.3394)">
	<stop  offset="0" style="stop-color:#050505"/>
	<stop  offset="0.0168" style="stop-color:#111111"/>
	<stop  offset="0.0885" style="stop-color:#3F3F3F"/>
	<stop  offset="0.1572" style="stop-color:#636363"/>
	<stop  offset="0.2213" style="stop-color:#7C7C7C"/>
	<stop  offset="0.279" style="stop-color:#8C8C8C"/>
	<stop  offset="0.3247" style="stop-color:#919191"/>
	<stop  offset="0.4296" style="stop-color:#8D8D8D"/>
	<stop  offset="0.5454" style="stop-color:#808080"/>
	<stop  offset="0.6663" style="stop-color:#6A6A6A"/>
	<stop  offset="0.7908" style="stop-color:#4B4B4B"/>
	<stop  offset="0.9168" style="stop-color:#232323"/>
	<stop  offset="1" style="stop-color:#050505"/>
</linearGradient>
<path fill="url(#SVGID_1_)" d="M340.664,160.661c-0.822-0.475-1.654-0.94-2.492-1.401c-0.271-0.15-0.551-0.297-0.824-0.444
	c-0.568-0.309-1.137-0.615-1.711-0.916c-0.334-0.174-0.67-0.344-1.006-0.517c-0.521-0.269-1.045-0.536-1.574-0.801
	c-0.359-0.18-0.725-0.355-1.088-0.534c-0.512-0.249-1.021-0.498-1.535-0.741c-0.379-0.18-0.758-0.355-1.139-0.532
	c-0.508-0.236-1.016-0.47-1.527-0.702c-0.389-0.175-0.777-0.348-1.168-0.521c-0.512-0.227-1.023-0.45-1.539-0.672
	c-0.396-0.17-0.793-0.339-1.191-0.506c-0.518-0.217-1.037-0.431-1.557-0.644c-0.4-0.164-0.803-0.327-1.205-0.487
	c-0.189-0.076-0.379-0.155-0.568-0.229c-0.195-0.077-0.395-0.147-0.59-0.225c-0.982-0.384-1.971-0.759-2.967-1.127
	c-0.273-0.102-0.547-0.206-0.822-0.306c-1.229-0.446-2.463-0.88-3.709-1.303c-0.281-0.096-0.566-0.188-0.852-0.282
	c-1.014-0.338-2.035-0.669-3.061-0.992c-0.346-0.108-0.689-0.217-1.033-0.324c-1.271-0.392-2.551-0.774-3.838-1.142
	c-0.023-0.007-0.047-0.015-0.07-0.021c-0.205-0.058-0.412-0.11-0.617-0.169c-0.887-0.25-1.775-0.496-2.672-0.734
	c-0.396-0.105-0.793-0.206-1.188-0.31c-0.738-0.191-1.477-0.381-2.218-0.564c-0.44-0.109-0.885-0.217-1.325-0.322
	c-0.709-0.17-1.418-0.338-2.13-0.501c-0.452-0.104-0.907-0.208-1.362-0.31c-0.72-0.159-1.439-0.314-2.16-0.468
	c-0.295-0.062-0.586-0.129-0.879-0.189c-0.158-0.033-0.316-0.063-0.476-0.095c-0.623-0.128-1.248-0.25-1.873-0.373
	c-0.483-0.094-0.967-0.189-1.45-0.281c-0.648-0.122-1.299-0.238-1.949-0.355c-0.463-0.083-0.928-0.169-1.394-0.25
	c-0.694-0.12-1.394-0.231-2.09-0.346c-0.427-0.069-0.849-0.143-1.274-0.208c-0.83-0.13-1.664-0.253-2.498-0.374
	c-0.276-0.041-0.552-0.085-0.828-0.124c-0.019-0.002-0.037-0.005-0.055-0.007c-0.914-0.129-1.83-0.25-2.746-0.369
	c-0.193-0.025-0.386-0.053-0.58-0.078c-1.109-0.14-2.224-0.273-3.338-0.396c-0.306-0.034-0.609-0.063-0.914-0.097
	c-0.814-0.088-1.632-0.175-2.447-0.255c-0.373-0.036-0.746-0.067-1.118-0.102c-0.749-0.069-1.499-0.14-2.25-0.202
	c-0.038-0.003-0.076-0.007-0.114-0.01l0,0c-0.443-0.037-0.891-0.066-1.334-0.101c-0.635-0.049-1.27-0.1-1.906-0.144
	c-0.508-0.035-1.018-0.063-1.527-0.096c-0.618-0.039-1.237-0.078-1.856-0.112c-0.519-0.028-1.035-0.051-1.553-0.075
	c-0.611-0.029-1.226-0.061-1.837-0.085c-0.53-0.021-1.062-0.037-1.592-0.055c-0.599-0.021-1.196-0.042-1.795-0.059
	c-0.113-0.003-0.227-0.008-0.34-0.011c-0.393-0.01-0.785-0.013-1.179-0.021c-0.653-0.013-1.308-0.025-1.962-0.033
	c-0.51-0.007-1.018-0.009-1.527-0.012c-0.648-0.003-1.297-0.007-1.945-0.005c-0.514,0.001-1.026,0.006-1.541,0.01
	c-0.643,0.007-1.285,0.013-1.928,0.023c-0.521,0.009-1.045,0.021-1.566,0.033c-0.629,0.015-1.256,0.031-1.883,0.05
	c-0.254,0.008-0.506,0.012-0.758,0.021c-0.258,0.01-0.516,0.023-0.771,0.032c-0.743,0.028-1.487,0.061-2.23,0.096
	c-0.476,0.021-0.951,0.044-1.427,0.068c-0.793,0.042-1.585,0.089-2.376,0.14c-0.419,0.025-0.839,0.05-1.257,0.078
	c-1.012,0.069-2.022,0.146-3.032,0.228c-0.195,0.016-0.392,0.029-0.588,0.045c-1.202,0.1-2.402,0.21-3.601,0.328
	c-0.062,0.006-0.125,0.011-0.188,0.018c-0.2,0.021-0.397,0.045-0.598,0.065c-1.101,0.111-2.198,0.231-3.294,0.359
	c-0.407,0.048-0.814,0.097-1.223,0.146c-1.062,0.13-2.122,0.267-3.181,0.411c-0.291,0.04-0.584,0.077-0.874,0.118
	c-1.318,0.185-2.632,0.381-3.941,0.588c-0.327,0.052-0.653,0.106-0.98,0.161c-1.018,0.166-2.031,0.337-3.043,0.517
	c-0.22,0.039-0.441,0.073-0.66,0.112c-0.225,0.041-0.448,0.085-0.672,0.126c-0.594,0.108-1.186,0.221-1.777,0.335
	c-0.51,0.098-1.02,0.197-1.529,0.298c-0.594,0.119-1.186,0.242-1.778,0.365c-0.501,0.104-1.001,0.208-1.501,0.315
	c-0.601,0.13-1.199,0.266-1.798,0.4c-0.485,0.108-0.972,0.217-1.455,0.33c-0.613,0.143-1.224,0.292-1.834,0.438
	c-0.465,0.113-0.931,0.225-1.395,0.34c-0.634,0.159-1.264,0.324-1.894,0.488c-0.436,0.114-0.873,0.225-1.308,0.341
	c-0.677,0.182-1.349,0.37-2.022,0.559c-0.383,0.106-0.769,0.211-1.15,0.319c-0.833,0.238-1.66,0.484-2.485,0.733
	c-0.217,0.065-0.437,0.127-0.654,0.193c-1.044,0.317-2.083,0.645-3.115,0.979c-0.015,0.005-0.03,0.009-0.045,0.015
	c-0.067,0.021-0.132,0.045-0.199,0.066c-1.148,0.374-2.288,0.76-3.421,1.154c-0.353,0.123-0.703,0.247-1.054,0.372
	c-0.935,0.332-1.864,0.671-2.789,1.017c-0.297,0.111-0.597,0.22-0.893,0.333c-1.178,0.448-2.347,0.907-3.506,1.378
	c-0.238,0.098-0.473,0.197-0.71,0.295c-0.94,0.389-1.874,0.782-2.801,1.186c-0.344,0.148-0.687,0.299-1.028,0.451
	c-0.947,0.419-1.888,0.846-2.82,1.281c-0.202,0.095-0.406,0.186-0.607,0.28c-1.11,0.524-2.209,1.063-3.297,1.609
	c-0.288,0.145-0.572,0.292-0.858,0.438c-0.837,0.428-1.669,0.863-2.493,1.306c-0.31,0.164-0.619,0.33-0.926,0.497
	c-1.067,0.583-2.126,1.173-3.168,1.778c-0.574,0.333-1.141,0.669-1.703,1.006c-0.133,0.08-0.26,0.162-0.393,0.242
	c-0.427,0.259-0.846,0.521-1.266,0.781c-0.398,0.248-0.796,0.495-1.188,0.745c-0.417,0.266-0.826,0.535-1.235,0.804
	c-0.38,0.249-0.761,0.497-1.135,0.748c-0.409,0.275-0.81,0.553-1.211,0.83c-0.361,0.25-0.725,0.498-1.08,0.75
	c-0.399,0.282-0.789,0.568-1.18,0.853c-0.345,0.251-0.693,0.501-1.032,0.753c-0.389,0.29-0.768,0.583-1.148,0.875
	c-0.328,0.251-0.66,0.502-0.982,0.757c-0.38,0.298-0.749,0.6-1.12,0.899c-0.311,0.251-0.625,0.501-0.93,0.754
	c-0.371,0.309-0.73,0.618-1.092,0.929c-0.292,0.25-0.59,0.498-0.877,0.75c-0.362,0.316-0.712,0.638-1.066,0.956
	c-0.242,0.22-0.491,0.437-0.729,0.655c-0.04,0.037-0.078,0.074-0.118,0.111c-0.095,0.087-0.186,0.175-0.28,0.263
	c-0.457,0.427-0.906,0.856-1.347,1.287c-0.125,0.122-0.252,0.245-0.376,0.368c-0.505,0.499-1.001,0.999-1.486,1.502
	c-0.084,0.088-0.167,0.177-0.25,0.265c-0.417,0.438-0.826,0.875-1.227,1.315c-0.117,0.128-0.234,0.255-0.35,0.384
	c-0.458,0.508-0.908,1.019-1.346,1.531c-0.076,0.089-0.149,0.178-0.224,0.267c-0.376,0.444-0.744,0.891-1.105,1.338
	c-0.108,0.135-0.217,0.269-0.324,0.402c-0.072,0.09-0.147,0.18-0.218,0.271c-0.132,0.169-0.254,0.339-0.384,0.508
	c-0.319,0.413-0.635,0.825-0.941,1.241c-0.188,0.255-0.371,0.51-0.553,0.765c-0.287,0.4-0.569,0.802-0.845,1.205
	c-0.178,0.26-0.354,0.52-0.526,0.779c-0.271,0.409-0.534,0.818-0.794,1.229c-0.159,0.251-0.319,0.503-0.474,0.755
	c-0.271,0.444-0.532,0.889-0.79,1.335c-0.1,0.173-0.208,0.345-0.306,0.519c-0.027,0.048-0.052,0.098-0.079,0.146
	c-0.223,0.396-0.433,0.795-0.645,1.193c-0.127,0.239-0.261,0.479-0.385,0.721c-0.233,0.454-0.453,0.909-0.671,1.365
	c-0.09,0.187-0.186,0.372-0.273,0.559c-0.301,0.645-0.589,1.29-0.862,1.938c-0.034,0.08-0.063,0.161-0.096,0.24
	c-0.236,0.567-0.464,1.136-0.679,1.705c-0.008,0.021-0.018,0.042-0.025,0.063c-0.086,0.229-0.161,0.46-0.244,0.689
	c-0.14,0.39-0.282,0.777-0.412,1.167c-0.092,0.276-0.173,0.553-0.26,0.828c-0.116,0.367-0.234,0.734-0.34,1.103
	c-0.083,0.288-0.157,0.576-0.235,0.864c-0.097,0.356-0.196,0.714-0.285,1.072c-0.073,0.295-0.136,0.59-0.203,0.887
	c-0.08,0.353-0.162,0.703-0.234,1.057c-0.013,0.062-0.029,0.125-0.042,0.188c-0.047,0.232-0.082,0.467-0.125,0.699
	c-0.066,0.357-0.134,0.715-0.192,1.073c-0.048,0.299-0.088,0.599-0.131,0.898c-0.051,0.354-0.102,0.709-0.144,1.063
	c-0.037,0.303-0.065,0.605-0.096,0.909c-0.036,0.351-0.071,0.703-0.098,1.055c-0.024,0.308-0.042,0.614-0.059,0.921
	c-0.02,0.348-0.04,0.695-0.052,1.042c-0.004,0.115-0.014,0.229-0.018,0.345c-0.011,0.407-0.018,0.816-0.019,1.225l-0.74,260.976
	c0.002-0.521,0.018-1.04,0.037-1.562c0.013-0.354,0.033-0.708,0.053-1.062c0.018-0.303,0.035-0.604,0.058-0.905
	c0.028-0.355,0.063-0.711,0.099-1.066c0.03-0.3,0.059-0.599,0.095-0.896c0.043-0.36,0.095-0.722,0.146-1.08
	c0.042-0.294,0.081-0.587,0.129-0.881c0.059-0.365,0.127-0.729,0.195-1.095c0.054-0.288,0.104-0.576,0.163-0.864
	c0.074-0.361,0.158-0.724,0.24-1.083c0.065-0.286,0.126-0.572,0.197-0.858c0.091-0.368,0.192-0.734,0.292-1.103
	c0.076-0.278,0.146-0.559,0.227-0.837c0.108-0.371,0.228-0.742,0.344-1.113c0.086-0.273,0.167-0.547,0.257-0.82
	c0.125-0.377,0.264-0.753,0.398-1.129c0.095-0.265,0.184-0.531,0.284-0.796c0.209-0.556,0.433-1.109,0.663-1.663
	c0.038-0.092,0.072-0.186,0.111-0.278c0.273-0.646,0.561-1.293,0.861-1.937c0.088-0.188,0.185-0.375,0.275-0.563
	c0.218-0.453,0.437-0.906,0.669-1.358c0.128-0.25,0.267-0.498,0.399-0.747c0.206-0.39,0.411-0.775,0.628-1.162
	c0.13-0.231,0.269-0.463,0.402-0.693c0.253-0.437,0.508-0.874,0.774-1.309c0.157-0.256,0.319-0.511,0.481-0.768
	c0.257-0.406,0.519-0.813,0.788-1.22c0.174-0.263,0.352-0.523,0.53-0.785c0.274-0.399,0.555-0.8,0.841-1.197
	c0.185-0.259,0.369-0.517,0.559-0.771c0.302-0.409,0.613-0.815,0.927-1.223c0.207-0.269,0.41-0.536,0.622-0.804
	c0.102-0.128,0.205-0.255,0.308-0.383c0.366-0.453,0.738-0.904,1.119-1.354c0.073-0.086,0.144-0.172,0.217-0.258
	c0.438-0.515,0.888-1.024,1.347-1.533c0.116-0.128,0.233-0.256,0.35-0.384c0.401-0.439,0.81-0.878,1.226-1.314
	c0.084-0.088,0.167-0.177,0.251-0.265c0.485-0.504,0.982-1.004,1.487-1.503c0.124-0.122,0.249-0.244,0.374-0.365
	c0.442-0.432,0.892-0.861,1.349-1.289c0.093-0.087,0.185-0.175,0.279-0.263c0.28-0.26,0.571-0.517,0.856-0.773
	c0.35-0.316,0.697-0.633,1.055-0.946c0.293-0.257,0.595-0.51,0.893-0.765c0.357-0.305,0.711-0.61,1.076-0.913
	c0.31-0.257,0.629-0.512,0.945-0.767c0.367-0.297,0.731-0.596,1.105-0.89c0.325-0.255,0.659-0.508,0.99-0.763
	c0.379-0.29,0.756-0.581,1.142-0.869c0.338-0.252,0.686-0.502,1.03-0.753c0.393-0.285,0.784-0.572,1.184-0.854
	c0.352-0.249,0.711-0.496,1.069-0.742c0.406-0.281,0.812-0.563,1.225-0.84c0.365-0.245,0.737-0.487,1.108-0.73
	c0.421-0.276,0.842-0.552,1.271-0.826c0.375-0.238,0.759-0.477,1.14-0.714c0.437-0.271,0.874-0.545,1.318-0.813
	c0.686-0.415,1.374-0.829,2.078-1.238c1.042-0.605,2.102-1.195,3.168-1.778c0.306-0.167,0.614-0.331,0.922-0.496
	c0.829-0.444,1.665-0.882,2.508-1.312c0.28-0.145,0.558-0.289,0.84-0.432c1.093-0.549,2.196-1.089,3.311-1.615
	c0.19-0.09,0.384-0.176,0.575-0.266c0.944-0.439,1.896-0.873,2.856-1.298c0.334-0.147,0.669-0.294,1.005-0.44
	c0.938-0.406,1.883-0.807,2.834-1.197c0.229-0.096,0.454-0.191,0.684-0.284c1.163-0.474,2.337-0.935,3.519-1.383
	c0.289-0.11,0.58-0.218,0.87-0.325c0.931-0.349,1.868-0.689,2.81-1.023c0.348-0.124,0.696-0.248,1.045-0.369
	c1.131-0.394,2.268-0.777,3.413-1.15c0.086-0.028,0.171-0.06,0.258-0.086c1.03-0.334,2.066-0.659,3.107-0.978
	c0.242-0.073,0.486-0.143,0.729-0.216c0.802-0.241,1.604-0.479,2.412-0.711c0.388-0.111,0.779-0.216,1.167-0.324
	c0.668-0.188,1.335-0.374,2.007-0.554c0.436-0.117,0.875-0.229,1.313-0.343c0.628-0.163,1.257-0.328,1.889-0.486
	c0.462-0.115,0.928-0.227,1.392-0.339c0.613-0.149,1.225-0.298,1.84-0.441c0.479-0.11,0.958-0.218,1.438-0.325
	c0.605-0.138,1.211-0.273,1.817-0.404c0.492-0.105,0.985-0.209,1.478-0.313c0.602-0.125,1.203-0.25,1.807-0.369
	c0.5-0.101,1-0.196,1.502-0.294c0.6-0.114,1.201-0.229,1.803-0.34c0.438-0.08,0.876-0.157,1.314-0.234
	c1.019-0.182,2.04-0.354,3.063-0.521c0.321-0.053,0.642-0.106,0.963-0.158c1.313-0.208,2.63-0.404,3.951-0.59
	c0.284-0.04,0.569-0.076,0.854-0.113c1.066-0.146,2.134-0.284,3.204-0.414c0.401-0.051,0.804-0.099,1.208-0.146
	c1.104-0.129,2.211-0.25,3.319-0.363c0.254-0.024,0.507-0.055,0.762-0.08c1.2-0.117,2.402-0.229,3.606-0.328
	c0.195-0.017,0.392-0.029,0.587-0.046c1.009-0.08,2.019-0.156,3.028-0.227c0.424-0.029,0.849-0.053,1.273-0.079
	c0.785-0.05,1.572-0.097,2.359-0.138c0.479-0.026,0.957-0.048,1.436-0.07c0.744-0.034,1.488-0.065,2.23-0.094
	c0.506-0.021,1.012-0.037,1.52-0.053c0.631-0.021,1.264-0.036,1.896-0.052c0.521-0.013,1.038-0.022,1.558-0.031
	c0.646-0.012,1.293-0.019,1.938-0.023c0.51-0.004,1.021-0.01,1.528-0.011c0.654-0.001,1.307,0.002,1.959,0.006
	c0.504,0.003,1.011,0.004,1.516,0.011c0.657,0.007,1.313,0.021,1.971,0.034c0.504,0.01,1.008,0.018,1.514,0.031
	c0.6,0.016,1.199,0.037,1.8,0.058c0.528,0.019,1.057,0.033,1.584,0.055c0.614,0.024,1.229,0.057,1.843,0.086
	c0.518,0.024,1.034,0.047,1.551,0.074c0.606,0.033,1.213,0.073,1.819,0.11c0.524,0.032,1.05,0.062,1.573,0.099
	c0.582,0.04,1.162,0.087,1.742,0.131c0.549,0.041,1.097,0.08,1.645,0.127c0.6,0.05,1.195,0.105,1.795,0.159
	c0.518,0.047,1.035,0.092,1.553,0.143c0.674,0.064,1.348,0.139,2.021,0.21c0.443,0.048,0.891,0.09,1.335,0.141
	c0.771,0.086,1.541,0.182,2.312,0.274c0.857,0.104,1.715,0.216,2.569,0.33c0.584,0.078,1.167,0.151,1.748,0.233
	c0.229,0.032,0.457,0.068,0.687,0.103c0.906,0.132,1.813,0.266,2.717,0.406c0.431,0.067,0.859,0.142,1.289,0.212
	c0.691,0.111,1.381,0.224,2.07,0.343c0.473,0.081,0.941,0.168,1.414,0.253c0.645,0.115,1.288,0.229,1.932,0.352
	c0.486,0.092,0.971,0.188,1.455,0.283c0.623,0.122,1.248,0.244,1.869,0.371c0.451,0.093,0.901,0.188,1.354,0.285
	c0.722,0.151,1.439,0.308,2.158,0.468c0.455,0.102,0.912,0.204,1.365,0.309c0.711,0.163,1.418,0.33,2.125,0.5
	c0.443,0.107,0.889,0.215,1.33,0.323c0.74,0.185,1.478,0.373,2.213,0.563c0.396,0.104,0.795,0.204,1.191,0.311
	c0.895,0.237,1.783,0.483,2.67,0.732c0.229,0.063,0.461,0.126,0.689,0.19c1.283,0.366,2.559,0.749,3.826,1.141
	c0.355,0.107,0.709,0.221,1.063,0.332c1.01,0.316,2.014,0.643,3.014,0.977c0.299,0.099,0.598,0.195,0.895,0.296
	c1.234,0.42,2.463,0.852,3.682,1.294c0.291,0.105,0.578,0.215,0.869,0.322c0.977,0.361,1.947,0.729,2.912,1.105
	c0.4,0.156,0.803,0.313,1.201,0.473c0.389,0.153,0.771,0.311,1.156,0.468c0.535,0.218,1.068,0.438,1.6,0.661
	c0.389,0.164,0.777,0.328,1.162,0.494c0.523,0.225,1.045,0.452,1.563,0.682c0.385,0.17,0.77,0.34,1.15,0.513
	c0.518,0.233,1.031,0.472,1.545,0.709c0.377,0.176,0.752,0.351,1.125,0.526c0.518,0.245,1.031,0.496,1.545,0.746
	c0.359,0.177,0.723,0.352,1.08,0.53c0.529,0.265,1.057,0.534,1.58,0.805c0.334,0.171,0.67,0.341,1.002,0.514
	c0.574,0.303,1.145,0.609,1.713,0.918c0.273,0.147,0.551,0.293,0.822,0.442c0.838,0.46,1.668,0.928,2.492,1.402
	c27.502,15.879,41.238,36.723,41.18,57.535c0.246-86.995,0.494-173.98,0.74-260.977C381.902,197.383,368.166,176.54,340.664,160.661
	z"/>
<g opacity="0.51">
	<defs>
		<filter id="Adobe_OpacityMaskFilter" filterUnits="userSpaceOnUse" x="100.962" y="130.481" width="281.598" height="115.821">
			<feColorMatrix  type="matrix" values="1 0 0 0 0  0 1 0 0 0  0 0 1 0 0  0 0 0 1 0"/>
		</filter>
	</defs>
	<mask maskUnits="userSpaceOnUse" x="100.962" y="130.481" width="281.598" height="115.821" id="SVGID_3_">
		<g filter="url(#Adobe_OpacityMaskFilter)">
		</g>
	</mask>
	<g mask="url(#SVGID_3_)">
		
			<radialGradient id="SVGID_2_" cx="241.7212" cy="405.948" r="107.652" gradientTransform="matrix(1 0 0 -1 0.04 594.3394)" gradientUnits="userSpaceOnUse">
			<stop  offset="0" style="stop-color:#8C8C8C"/>
			<stop  offset="1" style="stop-color:#000000"/>
		</radialGradient>
		<path fill="url(#SVGID_2_)" d="M341.113,154.306c-0.828-0.479-1.664-0.948-2.508-1.412c-0.275-0.151-0.555-0.298-0.83-0.448
			c-0.572-0.309-1.146-0.619-1.725-0.922c-0.334-0.175-0.674-0.346-1.01-0.52c-0.527-0.271-1.055-0.542-1.586-0.807
			c-0.363-0.181-0.73-0.359-1.096-0.538c-0.516-0.251-1.027-0.501-1.545-0.747c-0.381-0.18-0.764-0.356-1.146-0.535
			c-0.51-0.236-1.021-0.474-1.539-0.707c-0.391-0.176-0.781-0.351-1.176-0.523c-0.514-0.229-1.029-0.453-1.549-0.676
			c-0.398-0.172-0.799-0.342-1.199-0.511c-0.52-0.218-1.043-0.434-1.566-0.647c-0.402-0.165-0.807-0.329-1.213-0.491
			c-0.191-0.077-0.381-0.156-0.572-0.232c-0.197-0.077-0.396-0.147-0.594-0.225c-0.988-0.386-1.984-0.765-2.986-1.135
			c-0.275-0.103-0.551-0.207-0.828-0.309c-1.234-0.449-2.48-0.886-3.732-1.312c-0.285-0.096-0.57-0.189-0.855-0.284
			c-1.021-0.341-2.051-0.674-3.082-0.999c-0.35-0.107-0.693-0.218-1.041-0.325c-1.279-0.395-2.566-0.779-3.863-1.149
			c-0.023-0.007-0.047-0.015-0.07-0.021c-0.205-0.058-0.414-0.111-0.619-0.17c-0.895-0.252-1.791-0.5-2.691-0.74
			c-0.398-0.105-0.799-0.207-1.197-0.311c-0.74-0.192-1.483-0.383-2.229-0.568c-0.444-0.109-0.892-0.217-1.336-0.323
			c-0.712-0.172-1.426-0.34-2.142-0.505c-0.457-0.104-0.914-0.209-1.373-0.311c-0.725-0.161-1.448-0.317-2.176-0.471
			c-0.295-0.063-0.588-0.13-0.885-0.191c-0.158-0.033-0.318-0.062-0.479-0.095c-0.627-0.128-1.256-0.251-1.885-0.375
			c-0.486-0.095-0.974-0.192-1.459-0.284c-0.654-0.123-1.309-0.24-1.963-0.357c-0.468-0.084-0.935-0.17-1.402-0.251
			c-0.699-0.12-1.402-0.233-2.104-0.349c-0.428-0.07-0.854-0.143-1.282-0.21c-0.838-0.131-1.677-0.255-2.517-0.377
			c-0.276-0.041-0.556-0.085-0.832-0.125c-0.019-0.002-0.037-0.005-0.058-0.007c-0.92-0.13-1.842-0.252-2.764-0.371
			c-0.195-0.025-0.389-0.053-0.582-0.078c-1.119-0.141-2.24-0.274-3.363-0.4c-0.305-0.033-0.611-0.063-0.918-0.097
			c-0.82-0.088-1.643-0.177-2.465-0.257c-0.373-0.036-0.75-0.067-1.125-0.103c-0.754-0.069-1.509-0.141-2.266-0.202
			c-0.038-0.003-0.076-0.008-0.113-0.011l0,0c-0.447-0.037-0.896-0.065-1.344-0.101c-0.641-0.049-1.277-0.1-1.918-0.146
			c-0.514-0.034-1.025-0.063-1.539-0.096c-0.623-0.039-1.246-0.08-1.869-0.113c-0.521-0.027-1.043-0.051-1.563-0.075
			c-0.616-0.029-1.231-0.062-1.85-0.085c-0.533-0.022-1.066-0.038-1.602-0.057c-0.604-0.02-1.205-0.042-1.809-0.058
			c-0.113-0.003-0.228-0.008-0.342-0.011c-0.396-0.011-0.791-0.014-1.186-0.021c-0.658-0.013-1.316-0.026-1.977-0.034
			c-0.512-0.006-1.023-0.008-1.537-0.011c-0.651-0.003-1.306-0.007-1.959-0.005c-0.517,0.001-1.033,0.006-1.551,0.01
			c-0.646,0.006-1.293,0.012-1.938,0.023c-0.526,0.009-1.054,0.021-1.578,0.032c-0.634,0.016-1.265,0.031-1.896,0.052
			c-0.256,0.008-0.51,0.012-0.764,0.02c-0.259,0.009-0.518,0.023-0.777,0.033c-0.748,0.028-1.496,0.06-2.244,0.095
			c-0.479,0.022-0.957,0.044-1.436,0.07c-0.799,0.042-1.596,0.09-2.395,0.14c-0.421,0.027-0.843,0.05-1.264,0.079
			c-1.019,0.069-2.035,0.146-3.052,0.229c-0.197,0.016-0.396,0.028-0.592,0.045c-1.211,0.101-2.418,0.211-3.624,0.331
			c-0.064,0.006-0.127,0.011-0.19,0.017c-0.202,0.021-0.401,0.045-0.603,0.066c-1.106,0.112-2.211,0.233-3.314,0.362
			c-0.41,0.048-0.82,0.098-1.23,0.146c-1.07,0.131-2.137,0.269-3.201,0.414c-0.295,0.04-0.589,0.077-0.882,0.119
			c-1.327,0.186-2.648,0.383-3.967,0.592c-0.329,0.052-0.657,0.107-0.987,0.162c-1.023,0.167-2.045,0.34-3.063,0.521
			c-0.221,0.039-0.444,0.073-0.664,0.113c-0.227,0.041-0.45,0.086-0.677,0.127c-0.597,0.109-1.193,0.223-1.789,0.337
			c-0.513,0.1-1.026,0.198-1.538,0.3c-0.599,0.12-1.194,0.243-1.79,0.368c-0.505,0.105-1.009,0.209-1.511,0.318
			c-0.604,0.131-1.208,0.266-1.812,0.402c-0.488,0.11-0.977,0.219-1.464,0.332c-0.618,0.145-1.231,0.293-1.846,0.442
			c-0.468,0.113-0.938,0.225-1.404,0.342c-0.637,0.16-1.271,0.326-1.906,0.491c-0.438,0.114-0.879,0.226-1.316,0.343
			c-0.682,0.184-1.358,0.373-2.036,0.563c-0.386,0.106-0.773,0.212-1.158,0.32c-0.837,0.24-1.67,0.488-2.501,0.738
			c-0.219,0.066-0.44,0.128-0.659,0.195c-1.05,0.32-2.096,0.648-3.135,0.984c-0.015,0.006-0.03,0.01-0.045,0.015
			c-0.067,0.021-0.133,0.045-0.2,0.067c-1.156,0.376-2.303,0.766-3.444,1.162c-0.354,0.124-0.707,0.249-1.061,0.374
			c-0.941,0.334-1.877,0.676-2.807,1.023c-0.299,0.112-0.601,0.222-0.899,0.335c-1.186,0.451-2.362,0.913-3.529,1.387
			c-0.239,0.099-0.476,0.199-0.715,0.298c-0.947,0.391-1.887,0.787-2.82,1.192c-0.345,0.15-0.69,0.301-1.035,0.454
			c-0.954,0.422-1.9,0.852-2.839,1.291c-0.203,0.094-0.409,0.186-0.611,0.281c-1.118,0.527-2.224,1.068-3.319,1.619
			c-0.29,0.146-0.576,0.295-0.864,0.442c-0.843,0.431-1.68,0.869-2.509,1.314c-0.312,0.167-0.624,0.333-0.933,0.501
			c-1.073,0.586-2.139,1.18-3.188,1.79c-0.578,0.336-1.149,0.674-1.714,1.014c-0.133,0.081-0.262,0.163-0.395,0.244
			c-0.43,0.26-0.853,0.522-1.274,0.787c-0.401,0.249-0.802,0.498-1.197,0.75c-0.419,0.268-0.831,0.539-1.243,0.808
			c-0.382,0.251-0.766,0.501-1.143,0.754c-0.412,0.276-0.814,0.557-1.219,0.835c-0.364,0.251-0.73,0.502-1.087,0.754
			c-0.402,0.285-0.794,0.572-1.188,0.858c-0.347,0.253-0.697,0.504-1.038,0.759c-0.391,0.292-0.772,0.586-1.156,0.881
			c-0.331,0.253-0.664,0.505-0.989,0.76c-0.382,0.301-0.753,0.604-1.127,0.906c-0.313,0.253-0.629,0.505-0.937,0.76
			c-0.373,0.31-0.735,0.622-1.1,0.935c-0.294,0.251-0.594,0.501-0.882,0.755c-0.364,0.319-0.717,0.642-1.073,0.963
			c-0.243,0.22-0.495,0.438-0.734,0.659c-0.04,0.037-0.079,0.075-0.119,0.112c-0.095,0.088-0.188,0.177-0.282,0.265
			c-0.46,0.429-0.911,0.861-1.356,1.295c-0.126,0.123-0.253,0.246-0.379,0.37c-0.508,0.502-1.008,1.005-1.496,1.512
			c-0.085,0.088-0.168,0.177-0.252,0.267c-0.419,0.438-0.831,0.881-1.235,1.323c-0.117,0.129-0.235,0.258-0.352,0.387
			c-0.461,0.512-0.914,1.024-1.354,1.541c-0.077,0.089-0.15,0.18-0.226,0.269c-0.378,0.447-0.749,0.896-1.112,1.346
			c-0.109,0.136-0.218,0.271-0.326,0.405c-0.072,0.091-0.147,0.182-0.219,0.273c-0.134,0.169-0.256,0.34-0.387,0.51
			c-0.321,0.416-0.639,0.832-0.947,1.25c-0.189,0.256-0.373,0.513-0.557,0.769c-0.289,0.403-0.573,0.809-0.851,1.213
			c-0.179,0.263-0.356,0.523-0.53,0.786c-0.272,0.411-0.538,0.824-0.799,1.237c-0.159,0.253-0.321,0.506-0.476,0.76
			c-0.273,0.447-0.536,0.896-0.795,1.344c-0.101,0.175-0.21,0.348-0.309,0.521c-0.027,0.049-0.052,0.099-0.079,0.148
			c-0.225,0.398-0.437,0.8-0.649,1.2c-0.128,0.242-0.263,0.483-0.387,0.727c-0.234,0.456-0.456,0.915-0.676,1.374
			c-0.09,0.188-0.187,0.375-0.275,0.563c-0.303,0.648-0.593,1.299-0.868,1.95c-0.034,0.081-0.063,0.162-0.097,0.243
			c-0.238,0.571-0.468,1.143-0.684,1.716c-0.008,0.021-0.018,0.042-0.025,0.064c-0.086,0.23-0.162,0.463-0.245,0.694
			c-0.141,0.392-0.284,0.782-0.415,1.174c-0.092,0.278-0.174,0.557-0.262,0.833c-0.116,0.37-0.235,0.739-0.342,1.11
			c-0.084,0.29-0.158,0.58-0.236,0.87c-0.098,0.36-0.197,0.72-0.287,1.08c-0.073,0.297-0.137,0.595-0.204,0.892
			c-0.081,0.355-0.164,0.708-0.236,1.063c-0.013,0.063-0.029,0.126-0.042,0.188c-0.047,0.234-0.083,0.47-0.125,0.704
			c-0.067,0.36-0.135,0.721-0.193,1.081c-0.049,0.301-0.09,0.603-0.132,0.903c-0.051,0.356-0.103,0.714-0.146,1.071
			c-0.036,0.304-0.065,0.608-0.096,0.914c-0.036,0.354-0.071,0.708-0.099,1.063c-0.024,0.309-0.042,0.618-0.06,0.927
			c-0.02,0.351-0.04,0.7-0.053,1.049c-0.004,0.116-0.014,0.231-0.017,0.348c-0.012,0.411-0.019,0.821-0.02,1.232l-0.745,34.077
			c0.002-0.522,0.018-1.047,0.037-1.57c0.013-0.356,0.033-0.713,0.054-1.07c0.018-0.305,0.035-0.607,0.059-0.911
			c0.027-0.357,0.063-0.716,0.099-1.073c0.031-0.302,0.059-0.603,0.095-0.903c0.043-0.362,0.096-0.726,0.147-1.088
			c0.042-0.295,0.082-0.591,0.13-0.886c0.059-0.367,0.128-0.733,0.197-1.101c0.054-0.291,0.104-0.581,0.164-0.871
			c0.074-0.364,0.159-0.728,0.242-1.09c0.065-0.288,0.127-0.576,0.198-0.865c0.092-0.369,0.194-0.739,0.295-1.108
			c0.076-0.28,0.147-0.562,0.228-0.843c0.108-0.374,0.229-0.748,0.347-1.121c0.086-0.274,0.167-0.551,0.259-0.825
			c0.126-0.38,0.266-0.758,0.401-1.137c0.095-0.268,0.185-0.535,0.285-0.802c0.211-0.559,0.436-1.117,0.667-1.674
			c0.038-0.094,0.072-0.188,0.112-0.279c0.275-0.652,0.564-1.302,0.867-1.951c0.088-0.188,0.186-0.377,0.276-0.564
			c0.219-0.457,0.44-0.914,0.673-1.369c0.13-0.251,0.269-0.502,0.402-0.752c0.208-0.392,0.414-0.781,0.632-1.17
			c0.131-0.233,0.271-0.466,0.405-0.697c0.254-0.44,0.512-0.879,0.779-1.317c0.157-0.258,0.321-0.515,0.484-0.771
			c0.259-0.411,0.522-0.82,0.793-1.229c0.175-0.265,0.354-0.527,0.533-0.791c0.276-0.402,0.559-0.805,0.846-1.206
			c0.186-0.26,0.372-0.519,0.562-0.776c0.304-0.412,0.617-0.822,0.933-1.23c0.208-0.27,0.412-0.54,0.625-0.809
			c0.103-0.129,0.207-0.256,0.31-0.384c0.368-0.457,0.743-0.911,1.126-1.365c0.073-0.086,0.145-0.174,0.219-0.26
			c0.441-0.518,0.895-1.03,1.356-1.544c0.116-0.129,0.234-0.258,0.352-0.387c0.404-0.441,0.815-0.883,1.235-1.322
			c0.084-0.09,0.167-0.178,0.253-0.268c0.488-0.507,0.988-1.011,1.497-1.512c0.124-0.124,0.251-0.246,0.376-0.368
			c0.445-0.434,0.897-0.867,1.358-1.297c0.094-0.087,0.186-0.176,0.281-0.265c0.282-0.262,0.575-0.52,0.862-0.778
			c0.352-0.318,0.702-0.638,1.062-0.953c0.294-0.258,0.599-0.513,0.899-0.771c0.359-0.307,0.715-0.613,1.083-0.919
			c0.312-0.259,0.634-0.515,0.951-0.771c0.37-0.299,0.736-0.6,1.113-0.896c0.328-0.256,0.664-0.511,0.998-0.767
			c0.381-0.293,0.76-0.586,1.149-0.875c0.341-0.254,0.691-0.506,1.038-0.758c0.395-0.287,0.789-0.576,1.191-0.86
			c0.354-0.251,0.716-0.5,1.077-0.748c0.409-0.283,0.816-0.564,1.233-0.844c0.367-0.247,0.742-0.492,1.115-0.735
			c0.424-0.278,0.847-0.557,1.279-0.832c0.378-0.242,0.763-0.48,1.148-0.72c0.439-0.274,0.88-0.547,1.327-0.82
			c0.69-0.417,1.383-0.834,2.091-1.246c1.049-0.608,2.116-1.203,3.19-1.791c0.308-0.167,0.618-0.333,0.928-0.5
			c0.834-0.446,1.676-0.887,2.524-1.32c0.282-0.146,0.562-0.291,0.846-0.434c1.1-0.553,2.21-1.097,3.333-1.626
			c0.192-0.09,0.387-0.177,0.579-0.267c0.951-0.443,1.91-0.879,2.875-1.307c0.336-0.148,0.673-0.297,1.011-0.443
			c0.944-0.41,1.896-0.813,2.854-1.207c0.23-0.095,0.458-0.192,0.688-0.286c1.171-0.476,2.352-0.938,3.542-1.392
			c0.291-0.11,0.584-0.218,0.875-0.327c0.938-0.352,1.88-0.694,2.829-1.031c0.351-0.125,0.7-0.249,1.052-0.371
			c1.138-0.396,2.282-0.784,3.435-1.159c0.087-0.027,0.173-0.059,0.26-0.086c1.037-0.336,2.081-0.664,3.128-0.982
			c0.244-0.074,0.489-0.145,0.733-0.217c0.807-0.243,1.614-0.483,2.428-0.717c0.39-0.111,0.784-0.217,1.175-0.327
			c0.672-0.188,1.344-0.376,2.02-0.557c0.438-0.118,0.881-0.229,1.321-0.345c0.633-0.165,1.266-0.331,1.901-0.489
			c0.466-0.117,0.934-0.228,1.401-0.342c0.617-0.149,1.233-0.299,1.853-0.444c0.481-0.111,0.965-0.22,1.448-0.329
			c0.609-0.137,1.218-0.274,1.83-0.406c0.496-0.106,0.992-0.209,1.488-0.313c0.605-0.126,1.211-0.252,1.817-0.373
			c0.503-0.101,1.007-0.198,1.511-0.295c0.605-0.116,1.209-0.229,1.815-0.342c0.44-0.081,0.882-0.159,1.324-0.237
			c1.024-0.182,2.053-0.355,3.083-0.523c0.323-0.054,0.646-0.107,0.971-0.159c1.32-0.209,2.646-0.407,3.976-0.595
			c0.286-0.039,0.575-0.076,0.86-0.114c1.074-0.146,2.148-0.285,3.225-0.417c0.406-0.049,0.812-0.099,1.217-0.146
			c1.111-0.13,2.226-0.252,3.342-0.366c0.256-0.025,0.511-0.055,0.766-0.08c1.209-0.119,2.419-0.231,3.632-0.331
			c0.196-0.018,0.394-0.03,0.591-0.046c1.014-0.081,2.03-0.158,3.047-0.229c0.428-0.029,0.855-0.053,1.283-0.08
			c0.791-0.049,1.582-0.097,2.375-0.139c0.479-0.025,0.963-0.048,1.444-0.07c0.748-0.035,1.496-0.066,2.246-0.094
			c0.51-0.021,1.019-0.038,1.527-0.053c0.637-0.021,1.271-0.036,1.908-0.052c0.521-0.013,1.045-0.023,1.566-0.032
			c0.65-0.012,1.302-0.019,1.951-0.023c0.515-0.004,1.026-0.009,1.541-0.01c0.656-0.002,1.313,0.001,1.971,0.005
			c0.508,0.002,1.018,0.004,1.525,0.01c0.661,0.007,1.321,0.021,1.983,0.034c0.507,0.01,1.015,0.019,1.521,0.032
			c0.604,0.016,1.209,0.038,1.813,0.058c0.531,0.018,1.064,0.034,1.595,0.055c0.618,0.025,1.236,0.057,1.854,0.086
			c0.521,0.025,1.041,0.048,1.561,0.076c0.611,0.033,1.223,0.073,1.832,0.111c0.528,0.033,1.057,0.063,1.584,0.099
			c0.586,0.041,1.17,0.088,1.754,0.132c0.553,0.042,1.104,0.081,1.654,0.128c0.604,0.05,1.205,0.106,1.807,0.161
			c0.521,0.049,1.043,0.092,1.563,0.143c0.68,0.065,1.357,0.14,2.035,0.212c0.447,0.047,0.896,0.091,1.344,0.141
			c0.777,0.087,1.551,0.183,2.326,0.277c0.863,0.104,1.727,0.217,2.588,0.332c0.587,0.079,1.174,0.154,1.76,0.236
			c0.23,0.032,0.459,0.068,0.689,0.103c0.912,0.132,1.826,0.267,2.734,0.409c0.434,0.067,0.864,0.142,1.299,0.212
			c0.694,0.113,1.39,0.226,2.082,0.345c0.477,0.082,0.948,0.169,1.424,0.255c0.648,0.116,1.298,0.232,1.943,0.354
			c0.489,0.092,0.979,0.188,1.467,0.285c0.627,0.123,1.254,0.245,1.881,0.374c0.455,0.093,0.908,0.19,1.363,0.287
			c0.727,0.152,1.45,0.31,2.174,0.47c0.459,0.102,0.916,0.206,1.375,0.312c0.715,0.164,1.428,0.332,2.138,0.503
			c0.446,0.107,0.894,0.216,1.34,0.325c0.745,0.186,1.485,0.375,2.228,0.568c0.4,0.104,0.801,0.205,1.199,0.312
			c0.898,0.24,1.795,0.487,2.688,0.738c0.23,0.065,0.463,0.126,0.693,0.193c1.293,0.368,2.576,0.753,3.854,1.146
			c0.357,0.109,0.715,0.222,1.068,0.334c1.018,0.32,2.027,0.647,3.035,0.983c0.299,0.1,0.6,0.197,0.898,0.298
			c1.244,0.422,2.479,0.855,3.705,1.302c0.293,0.107,0.584,0.217,0.875,0.325c0.984,0.364,1.961,0.735,2.932,1.114
			c0.404,0.156,0.809,0.313,1.211,0.474c0.389,0.155,0.775,0.313,1.164,0.471c0.539,0.221,1.076,0.442,1.609,0.667
			c0.393,0.164,0.781,0.33,1.17,0.497c0.527,0.227,1.051,0.455,1.574,0.686c0.387,0.171,0.773,0.343,1.156,0.517
			c0.521,0.235,1.039,0.476,1.555,0.714c0.379,0.177,0.758,0.353,1.135,0.53c0.52,0.247,1.035,0.499,1.553,0.752
			c0.363,0.177,0.729,0.354,1.09,0.533c0.533,0.267,1.061,0.538,1.59,0.81c0.336,0.172,0.674,0.344,1.008,0.518
			c0.58,0.304,1.152,0.613,1.727,0.924c0.273,0.148,0.553,0.295,0.828,0.446c0.842,0.463,1.68,0.934,2.508,1.411
			c27.686,15.984,41.512,36.967,41.453,57.916c0.246-87.57,0.496,53.494,0.744-34.077
			C382.625,191.271,368.796,170.29,341.113,154.306z"/>
	</g>
</g>
<path fill="#8C8C8C" d="M399.478,218.521l-0.738,260.976c-0.066,23.215-15.324,46.394-45.805,64.104
	c-61.352,35.654-161.141,35.656-222.894,0.004c-31.075-17.939-46.594-41.491-46.528-65.006l0,0
	c0.246-86.994,0.494-173.98,0.74-260.976c-0.066,23.515,15.454,47.064,46.528,65.006c61.752,35.652,161.543,35.649,222.895-0.004
	C384.156,264.915,399.414,241.735,399.478,218.521z"/>
<path fill="#C2C2C2" d="M352.953,153.519c61.752,35.651,62.074,93.455,0.725,129.107c-61.352,35.653-161.143,35.656-222.895,0.004
	c-61.752-35.652-62.078-93.458-0.727-129.11C191.405,117.866,291.201,117.866,352.953,153.519z M144.019,274.938
	c54.656,31.556,142.984,31.555,197.285,0c54.305-31.559,54.016-82.722-0.641-114.276c-54.658-31.557-142.988-31.557-197.292,0
	C89.071,192.217,89.36,243.38,144.019,274.938"/>
<linearGradient id="SVGID_4_" gradientUnits="userSpaceOnUse" x1="83.564" y1="200.3015" x2="399.8931" y2="200.3015" gradientTransform="matrix(1 0 0 -1 0.04 594.3394)">
	<stop  offset="0" style="stop-color:#010101"/>
	<stop  offset="0.2938" style="stop-color:#FFFFFF"/>
	<stop  offset="0.3682" style="stop-color:#FAFAFA"/>
	<stop  offset="0.4555" style="stop-color:#ECECEC"/>
	<stop  offset="0.5494" style="stop-color:#D4D4D4"/>
	<stop  offset="0.6479" style="stop-color:#B3B3B3"/>
	<stop  offset="0.75" style="stop-color:#898989"/>
	<stop  offset="0.8551" style="stop-color:#555555"/>
	<stop  offset="0.9608" style="stop-color:#181818"/>
	<stop  offset="1" style="stop-color:#000000"/>
</linearGradient>
<path opacity="0.39" fill="url(#SVGID_4_)" enable-background="new    " d="M399.25,330.298
	c0.105-37.237,0.213-74.477,0.316-111.716c-0.002,0.59-0.02,1.181-0.041,1.77c-0.016,0.396-0.035,0.791-0.061,1.186
	c-0.02,0.345-0.039,0.689-0.064,1.034c-0.031,0.399-0.07,0.797-0.111,1.196c-0.035,0.341-0.066,0.682-0.107,1.022
	c-0.049,0.402-0.105,0.806-0.164,1.207c-0.047,0.336-0.094,0.673-0.146,1.009c-0.066,0.408-0.145,0.815-0.219,1.224
	c-0.063,0.33-0.119,0.66-0.188,0.989c-0.082,0.4-0.176,0.801-0.266,1.2c-0.076,0.332-0.146,0.665-0.229,0.996
	c-0.1,0.403-0.213,0.806-0.32,1.208c-0.088,0.328-0.172,0.656-0.268,0.982c-0.117,0.409-0.25,0.817-0.379,1.227
	c-0.1,0.318-0.193,0.638-0.299,0.955c-0.143,0.428-0.299,0.854-0.453,1.282c-0.105,0.296-0.205,0.593-0.316,0.888
	c-0.232,0.62-0.482,1.239-0.738,1.856c-0.047,0.114-0.09,0.228-0.139,0.341c-0.307,0.73-0.631,1.458-0.971,2.184
	c-0.104,0.223-0.217,0.443-0.324,0.665c-0.242,0.503-0.484,1.008-0.742,1.509c-0.146,0.283-0.303,0.565-0.453,0.849
	c-0.232,0.437-0.463,0.873-0.707,1.309c-0.328,0.585-0.666,1.169-1.018,1.751c-0.063,0.108-0.129,0.217-0.193,0.324
	c-0.371,0.61-0.752,1.219-1.146,1.825c-0.049,0.075-0.098,0.149-0.146,0.224c-0.402,0.615-0.816,1.229-1.242,1.839
	c-0.02,0.028-0.039,0.057-0.059,0.084c-0.43,0.615-0.877,1.228-1.33,1.838c-0.072,0.098-0.146,0.196-0.219,0.294
	c-0.436,0.576-0.881,1.152-1.338,1.726c-0.115,0.145-0.23,0.288-0.348,0.431c-0.416,0.518-0.84,1.031-1.273,1.543
	c-0.078,0.093-0.154,0.187-0.232,0.278c-0.498,0.583-1.01,1.164-1.531,1.742c-0.125,0.14-0.254,0.279-0.381,0.419
	c-0.459,0.503-0.928,1.005-1.404,1.504c-0.09,0.095-0.178,0.19-0.271,0.286c-0.549,0.57-1.111,1.138-1.684,1.703
	c-0.141,0.137-0.281,0.274-0.424,0.412c-0.496,0.484-1.002,0.967-1.516,1.447c-0.109,0.104-0.217,0.206-0.326,0.309
	c-0.309,0.286-0.629,0.568-0.943,0.853c-0.402,0.364-0.803,0.729-1.215,1.089c-0.326,0.286-0.664,0.569-0.996,0.854
	c-0.406,0.348-0.811,0.696-1.227,1.042c-0.348,0.288-0.705,0.572-1.061,0.858c-0.416,0.337-0.83,0.676-1.258,1.011
	c-0.365,0.288-0.744,0.574-1.115,0.859c-0.43,0.328-0.854,0.657-1.291,0.982c-0.385,0.287-0.777,0.571-1.172,0.856
	c-0.441,0.32-0.879,0.642-1.33,0.96c-0.398,0.282-0.809,0.563-1.217,0.845c-0.455,0.313-0.91,0.629-1.373,0.939
	c-0.418,0.281-0.844,0.559-1.268,0.836c-0.471,0.309-0.938,0.616-1.416,0.922c-0.434,0.275-0.871,0.548-1.313,0.82
	c-0.484,0.303-0.971,0.605-1.465,0.905c-0.777,0.471-1.559,0.94-2.355,1.404c-1.178,0.685-2.373,1.351-3.578,2.009
	c-0.348,0.188-0.695,0.375-1.047,0.562c-0.932,0.5-1.869,0.992-2.818,1.478c-0.322,0.164-0.643,0.33-0.965,0.494
	c-1.232,0.618-2.475,1.227-3.73,1.817c-0.223,0.106-0.451,0.208-0.676,0.313c-1.057,0.492-2.121,0.976-3.193,1.451
	c-0.387,0.171-0.773,0.34-1.162,0.509c-1.045,0.453-2.096,0.897-3.154,1.334c-0.271,0.112-0.541,0.228-0.814,0.339
	c-1.307,0.531-2.627,1.049-3.955,1.554c-0.338,0.129-0.68,0.254-1.02,0.381c-1.039,0.39-2.082,0.771-3.133,1.143
	c-0.402,0.144-0.805,0.286-1.211,0.427c-1.264,0.439-2.533,0.87-3.814,1.288c-0.107,0.035-0.215,0.072-0.324,0.107
	c-1.162,0.376-2.33,0.742-3.504,1.102c-0.275,0.084-0.553,0.162-0.828,0.245c-0.904,0.271-1.811,0.542-2.723,0.803
	c-0.439,0.125-0.883,0.245-1.324,0.368c-0.752,0.209-1.502,0.42-2.258,0.623c-0.5,0.134-1.004,0.262-1.508,0.392
	c-0.701,0.185-1.402,0.367-2.107,0.544c-0.533,0.135-1.07,0.262-1.605,0.392c-0.68,0.165-1.357,0.33-2.039,0.489
	c-0.557,0.129-1.113,0.254-1.67,0.379c-0.67,0.149-1.336,0.301-2.008,0.444c-0.571,0.124-1.146,0.243-1.719,0.363
	c-0.659,0.138-1.318,0.273-1.98,0.406c-0.586,0.117-1.172,0.229-1.76,0.343c-0.657,0.127-1.314,0.252-1.975,0.372
	c-0.51,0.094-1.021,0.184-1.529,0.274c-1.135,0.2-2.271,0.394-3.41,0.579c-0.377,0.063-0.752,0.125-1.129,0.186
	c-1.477,0.232-2.957,0.455-4.442,0.663c-0.335,0.047-0.674,0.09-1.011,0.136c-1.188,0.161-2.377,0.315-3.568,0.461
	c-0.466,0.057-0.932,0.113-1.396,0.167c-1.227,0.145-2.453,0.277-3.684,0.403c-0.311,0.031-0.619,0.065-0.93,0.098
	c-1.348,0.133-2.697,0.257-4.052,0.369c-0.239,0.02-0.479,0.036-0.722,0.055c-1.121,0.091-2.242,0.176-3.367,0.252
	c-0.481,0.033-0.965,0.062-1.446,0.092c-0.886,0.056-1.771,0.107-2.657,0.154c-0.544,0.028-1.087,0.055-1.631,0.079
	c-0.832,0.039-1.667,0.074-2.501,0.106c-0.583,0.021-1.165,0.042-1.747,0.06c-0.695,0.021-1.393,0.04-2.09,0.056
	c-0.605,0.016-1.213,0.028-1.818,0.038c-0.709,0.013-1.418,0.021-2.127,0.025c-0.594,0.005-1.188,0.012-1.781,0.013
	c-0.729,0.001-1.457-0.002-2.188-0.006c-0.573-0.004-1.146-0.005-1.721-0.013c-0.752-0.009-1.504-0.024-2.258-0.039
	c-0.556-0.012-1.111-0.021-1.666-0.034c-0.687-0.019-1.371-0.043-2.058-0.066c-0.594-0.021-1.19-0.036-1.784-0.062
	c-0.683-0.027-1.363-0.063-2.044-0.095c-0.598-0.028-1.192-0.056-1.79-0.086c-0.683-0.038-1.364-0.082-2.046-0.125
	c-0.594-0.037-1.188-0.07-1.78-0.11c-0.667-0.046-1.333-0.1-1.999-0.15c-0.609-0.047-1.219-0.09-1.826-0.14
	c-0.643-0.054-1.285-0.115-1.926-0.173c-0.625-0.058-1.25-0.108-1.873-0.17c-0.677-0.065-1.351-0.142-2.026-0.211
	c-0.585-0.063-1.172-0.119-1.756-0.186c-0.997-0.11-1.991-0.231-2.985-0.354c-0.644-0.079-1.285-0.163-1.927-0.247
	c-0.864-0.113-1.728-0.227-2.589-0.349c-0.355-0.05-0.709-0.105-1.064-0.157c-0.923-0.135-1.844-0.27-2.764-0.413
	c-0.482-0.076-0.961-0.158-1.443-0.236c-0.785-0.128-1.57-0.256-2.354-0.39c-0.529-0.092-1.057-0.189-1.584-0.284
	c-0.732-0.132-1.467-0.263-2.195-0.4c-0.543-0.102-1.085-0.21-1.627-0.314c-0.713-0.141-1.426-0.279-2.137-0.425
	c-0.502-0.104-1.001-0.21-1.501-0.316c-0.824-0.174-1.647-0.351-2.467-0.533c-0.509-0.114-1.018-0.229-1.526-0.346
	c-0.808-0.187-1.613-0.376-2.417-0.569c-0.497-0.119-0.994-0.239-1.489-0.36c-0.842-0.209-1.68-0.425-2.517-0.643
	c-0.444-0.114-0.89-0.228-1.333-0.346c-1.021-0.272-2.037-0.553-3.05-0.838c-0.248-0.069-0.498-0.137-0.745-0.206
	c-1.457-0.416-2.902-0.85-4.341-1.292c-0.389-0.12-0.776-0.243-1.165-0.365c-1.158-0.364-2.311-0.737-3.457-1.119
	c-0.322-0.106-0.646-0.213-0.966-0.321c-1.405-0.477-2.8-0.966-4.184-1.47c-0.316-0.115-0.629-0.233-0.945-0.351
	c-1.116-0.412-2.225-0.834-3.327-1.265c-0.446-0.174-0.893-0.347-1.335-0.522c-0.444-0.178-0.886-0.358-1.328-0.538
	c-0.599-0.244-1.196-0.491-1.791-0.74c-0.442-0.186-0.883-0.373-1.322-0.562c-0.588-0.253-1.174-0.51-1.757-0.768
	c-0.437-0.192-0.872-0.387-1.306-0.582c-0.583-0.264-1.163-0.53-1.74-0.799c-0.425-0.199-0.851-0.396-1.274-0.597
	c-0.583-0.277-1.163-0.561-1.741-0.842c-0.409-0.2-0.818-0.397-1.224-0.602c-0.599-0.299-1.192-0.603-1.785-0.908
	c-0.377-0.192-0.756-0.385-1.13-0.58c-0.649-0.34-1.291-0.688-1.933-1.034c-0.311-0.167-0.625-0.332-0.934-0.502
	c-0.946-0.521-1.885-1.049-2.814-1.584c-31.073-17.94-46.593-41.49-46.526-65.005c-0.246,86.995-0.494,173.98-0.74,260.976
	c-0.067,23.515,15.452,47.064,46.525,65.005c0.929,0.535,1.867,1.063,2.812,1.583c0.314,0.172,0.634,0.34,0.949,0.511
	c0.636,0.346,1.272,0.688,1.916,1.025c0.379,0.198,0.763,0.392,1.144,0.588c0.589,0.302,1.177,0.604,1.771,0.9
	c0.409,0.204,0.822,0.403,1.233,0.604c0.575,0.28,1.151,0.563,1.732,0.837c0.425,0.202,0.854,0.4,1.281,0.601
	c0.576,0.268,1.152,0.533,1.732,0.795c0.437,0.197,0.875,0.393,1.314,0.586c0.581,0.258,1.163,0.512,1.749,0.763
	c0.442,0.189,0.886,0.379,1.331,0.565c0.591,0.249,1.185,0.493,1.78,0.735c0.445,0.183,0.891,0.363,1.339,0.542
	c0.218,0.088,0.433,0.179,0.652,0.266c0.223,0.087,0.451,0.168,0.674,0.255c1.105,0.432,2.217,0.854,3.337,1.269
	c0.313,0.115,0.623,0.233,0.938,0.349c1.385,0.504,2.781,0.994,4.187,1.471c0.32,0.108,0.642,0.213,0.963,0.32
	c1.147,0.382,2.301,0.756,3.461,1.12c0.387,0.122,0.773,0.244,1.162,0.362c1.44,0.444,2.886,0.878,4.344,1.294
	c0.024,0.008,0.049,0.016,0.074,0.021c0.216,0.062,0.436,0.118,0.652,0.18c1.019,0.287,2.041,0.569,3.068,0.844
	c0.441,0.117,0.885,0.229,1.328,0.345c0.838,0.219,1.677,0.434,2.52,0.643c0.495,0.122,0.991,0.241,1.487,0.36
	c0.804,0.193,1.61,0.384,2.418,0.568c0.508,0.117,1.016,0.232,1.526,0.347c0.819,0.183,1.64,0.358,2.463,0.532
	c0.326,0.069,0.65,0.146,0.977,0.212c0.176,0.036,0.354,0.069,0.53,0.104c0.71,0.146,1.422,0.286,2.135,0.425
	c0.542,0.106,1.082,0.214,1.626,0.316c0.732,0.139,1.467,0.27,2.202,0.4c0.525,0.095,1.049,0.19,1.577,0.282
	c0.786,0.136,1.576,0.264,2.365,0.393c0.478,0.078,0.954,0.158,1.433,0.234c0.926,0.146,1.855,0.28,2.784,0.416
	c0.325,0.048,0.649,0.101,0.975,0.146c0.022,0.004,0.046,0.006,0.069,0.009c0.967,0.138,1.938,0.265,2.908,0.391
	c0.282,0.037,0.562,0.078,0.845,0.113c1.253,0.159,2.508,0.308,3.766,0.449c0.39,0.043,0.779,0.08,1.169,0.122
	c0.875,0.094,1.75,0.188,2.627,0.272c0.456,0.045,0.914,0.083,1.371,0.125c0.811,0.074,1.62,0.15,2.432,0.218
	c0.047,0.005,0.092,0.01,0.137,0.014c0.463,0.038,0.927,0.067,1.389,0.104c0.76,0.06,1.52,0.12,2.281,0.172
	c0.562,0.038,1.127,0.07,1.689,0.105c0.709,0.044,1.417,0.091,2.127,0.129c0.588,0.032,1.178,0.058,1.768,0.086
	c0.686,0.033,1.373,0.067,2.061,0.096c0.594,0.023,1.189,0.041,1.785,0.063c0.686,0.021,1.369,0.047,2.055,0.064
	c0.125,0.004,0.248,0.01,0.373,0.013c0.431,0.011,0.863,0.015,1.295,0.022c0.752,0.016,1.505,0.029,2.259,0.039
	c0.573,0.008,1.146,0.01,1.72,0.013c0.729,0.005,1.458,0.008,2.188,0.006c0.595-0.001,1.188-0.007,1.781-0.013
	c0.709-0.007,1.418-0.014,2.127-0.025c0.605-0.01,1.213-0.022,1.818-0.037c0.696-0.018,1.393-0.035,2.089-0.056
	c0.289-0.011,0.578-0.015,0.867-0.023c0.293-0.011,0.588-0.026,0.881-0.037c0.834-0.031,1.667-0.067,2.5-0.104
	c0.543-0.025,1.087-0.052,1.632-0.079c0.887-0.047,1.771-0.102,2.655-0.155c0.483-0.03,0.968-0.058,1.448-0.091
	c1.124-0.077,2.248-0.161,3.369-0.252c0.24-0.021,0.479-0.035,0.72-0.057c1.353-0.111,2.703-0.235,4.053-0.368
	c0.074-0.009,0.148-0.015,0.224-0.021c0.233-0.023,0.467-0.053,0.701-0.077c1.23-0.126,2.461-0.26,3.688-0.401
	c0.466-0.056,0.931-0.11,1.396-0.168c1.191-0.146,2.383-0.3,3.568-0.462c0.337-0.045,0.675-0.088,1.012-0.136
	c1.483-0.207,2.965-0.429,4.438-0.662c0.379-0.06,0.756-0.124,1.134-0.186c1.139-0.187,2.271-0.379,3.404-0.579
	c0.253-0.045,0.509-0.083,0.761-0.13c0.261-0.046,0.517-0.098,0.774-0.146c0.656-0.12,1.313-0.245,1.969-0.37
	c0.589-0.114,1.178-0.229,1.766-0.346c0.659-0.132,1.316-0.269,1.975-0.404c0.576-0.12,1.151-0.239,1.727-0.363
	c0.668-0.146,1.332-0.295,1.996-0.444c0.561-0.126,1.121-0.251,1.68-0.381c0.68-0.159,1.355-0.323,2.031-0.487
	c0.537-0.131,1.078-0.259,1.613-0.394c0.703-0.175,1.402-0.358,2.102-0.541c0.506-0.131,1.012-0.259,1.514-0.394
	c0.756-0.203,1.506-0.413,2.256-0.622c0.441-0.123,0.885-0.243,1.324-0.369c0.918-0.263,1.828-0.533,2.736-0.808
	c0.271-0.081,0.545-0.158,0.813-0.239c1.176-0.358,2.346-0.727,3.51-1.104c0.018-0.006,0.037-0.012,0.057-0.018
	c0.084-0.028,0.168-0.059,0.254-0.085c1.285-0.42,2.561-0.853,3.83-1.293c0.402-0.142,0.803-0.282,1.203-0.426
	c1.053-0.373,2.098-0.755,3.139-1.144c0.338-0.127,0.68-0.251,1.016-0.379c1.33-0.506,2.648-1.023,3.957-1.556
	c0.271-0.11,0.543-0.227,0.814-0.339c1.059-0.437,2.109-0.881,3.152-1.334c0.391-0.169,0.777-0.339,1.164-0.51
	c1.072-0.475,2.137-0.958,3.191-1.45c0.225-0.104,0.453-0.207,0.678-0.313c1.256-0.594,2.498-1.2,3.73-1.819
	c0.322-0.163,0.645-0.33,0.967-0.494c0.947-0.483,1.887-0.976,2.818-1.476c0.348-0.188,0.697-0.374,1.047-0.563
	c1.205-0.656,2.398-1.323,3.578-2.009c0.646-0.377,1.287-0.756,1.922-1.137c0.146-0.088,0.287-0.18,0.432-0.268
	c0.496-0.3,0.98-0.602,1.467-0.904c0.439-0.272,0.879-0.545,1.311-0.821c0.479-0.305,0.947-0.613,1.418-0.921
	c0.424-0.277,0.85-0.557,1.268-0.836c0.463-0.313,0.918-0.626,1.371-0.94c0.408-0.281,0.818-0.562,1.219-0.846
	c0.451-0.317,0.891-0.639,1.33-0.96c0.393-0.285,0.787-0.568,1.172-0.855c0.438-0.326,0.861-0.653,1.289-0.981
	c0.373-0.286,0.75-0.571,1.117-0.86c0.426-0.334,0.84-0.673,1.258-1.01c0.354-0.286,0.711-0.571,1.061-0.859
	c0.414-0.346,0.818-0.692,1.225-1.042c0.334-0.284,0.672-0.565,0.998-0.853c0.412-0.361,0.813-0.728,1.215-1.09
	c0.27-0.244,0.549-0.485,0.813-0.73c0.045-0.04,0.088-0.081,0.131-0.122c0.109-0.103,0.217-0.205,0.326-0.308
	c0.514-0.48,1.02-0.962,1.516-1.446c0.141-0.138,0.285-0.277,0.424-0.415c0.572-0.563,1.133-1.13,1.684-1.699
	c0.094-0.098,0.184-0.194,0.275-0.293c0.475-0.496,0.938-0.992,1.395-1.492c0.131-0.144,0.262-0.286,0.393-0.431
	c0.518-0.575,1.025-1.151,1.521-1.73c0.086-0.1,0.168-0.198,0.25-0.3c0.426-0.503,0.844-1.009,1.254-1.516
	c0.121-0.15,0.242-0.3,0.359-0.45c0.082-0.104,0.168-0.205,0.248-0.309c0.369-0.467,0.729-0.937,1.08-1.405
	c0.076-0.102,0.15-0.203,0.229-0.305c0.451-0.608,0.895-1.219,1.324-1.83c0.021-0.03,0.041-0.062,0.063-0.091
	c0.426-0.609,0.836-1.222,1.238-1.834c0.051-0.075,0.1-0.15,0.148-0.226c0.395-0.605,0.773-1.216,1.145-1.825
	c0.064-0.106,0.131-0.216,0.195-0.323c0.314-0.524,0.625-1.052,0.924-1.578c0.031-0.059,0.061-0.115,0.092-0.174
	c0.244-0.436,0.477-0.871,0.707-1.309c0.15-0.283,0.309-0.564,0.455-0.85c0.258-0.501,0.498-1.005,0.742-1.508
	c0.105-0.223,0.221-0.442,0.322-0.665c0.34-0.727,0.664-1.454,0.973-2.185c0.049-0.113,0.09-0.228,0.137-0.341
	c0.256-0.618,0.506-1.236,0.74-1.857c0.01-0.023,0.02-0.05,0.029-0.073c0.102-0.271,0.188-0.542,0.285-0.813
	c0.154-0.427,0.311-0.854,0.453-1.282c0.105-0.316,0.199-0.637,0.299-0.954c0.129-0.408,0.262-0.816,0.381-1.227
	c0.094-0.327,0.178-0.655,0.268-0.982c0.107-0.402,0.221-0.805,0.318-1.208c0.082-0.332,0.152-0.664,0.23-0.996
	c0.09-0.399,0.184-0.8,0.266-1.2c0.016-0.069,0.031-0.14,0.047-0.209c0.053-0.261,0.092-0.521,0.141-0.78
	c0.074-0.407,0.152-0.814,0.217-1.223c0.057-0.336,0.102-0.673,0.148-1.009c0.057-0.402,0.115-0.806,0.164-1.209
	c0.041-0.339,0.072-0.679,0.105-1.019c0.041-0.4,0.082-0.802,0.111-1.202c0.027-0.34,0.047-0.681,0.066-1.021
	c0.023-0.401,0.045-0.804,0.061-1.204c0.004-0.125,0.016-0.251,0.02-0.377c0.014-0.46,0.021-0.923,0.021-1.385
	c0.018-6.324,0.035-12.648,0.055-18.975C400.503,417.156,399.933,373.728,399.25,330.298z"/>
<linearGradient id="SVGID_5_" gradientUnits="userSpaceOnUse" x1="83.564" y1="200.3015" x2="399.8931" y2="200.3015" gradientTransform="matrix(1 0 0 -1 0.04 594.3394)">
	<stop  offset="0" style="stop-color:#010101"/>
	<stop  offset="0.018" style="stop-color:#252525"/>
	<stop  offset="0.0466" style="stop-color:#575757"/>
	<stop  offset="0.0766" style="stop-color:#848484"/>
	<stop  offset="0.1075" style="stop-color:#AAAAAA"/>
	<stop  offset="0.1393" style="stop-color:#C9C9C9"/>
	<stop  offset="0.1725" style="stop-color:#E1E1E1"/>
	<stop  offset="0.2076" style="stop-color:#F2F2F2"/>
	<stop  offset="0.246" style="stop-color:#FCFCFC"/>
	<stop  offset="0.2938" style="stop-color:#FFFFFF"/>
	<stop  offset="0.5179" style="stop-color:#FDFDFD"/>
	<stop  offset="0.6147" style="stop-color:#F6F6F6"/>
	<stop  offset="0.687" style="stop-color:#E9E9E9"/>
	<stop  offset="0.7471" style="stop-color:#D7D7D7"/>
	<stop  offset="0.7997" style="stop-color:#C0C0C0"/>
	<stop  offset="0.847" style="stop-color:#A4A4A4"/>
	<stop  offset="0.8903" style="stop-color:#818181"/>
	<stop  offset="0.9306" style="stop-color:#5A5A5A"/>
	<stop  offset="0.9669" style="stop-color:#2F2F2F"/>
	<stop  offset="1" style="stop-color:#000000"/>
</linearGradient>
<path opacity="0.45" fill="url(#SVGID_5_)" enable-background="new    " d="M399.25,330.298
	c0.105-37.237,0.213-74.477,0.316-111.716c-0.002,0.59-0.02,1.181-0.041,1.77c-0.016,0.396-0.035,0.791-0.061,1.186
	c-0.02,0.345-0.039,0.689-0.064,1.034c-0.031,0.399-0.07,0.797-0.111,1.196c-0.035,0.341-0.066,0.682-0.107,1.022
	c-0.049,0.402-0.105,0.806-0.164,1.207c-0.047,0.336-0.094,0.673-0.146,1.009c-0.066,0.408-0.145,0.815-0.219,1.224
	c-0.063,0.33-0.119,0.66-0.188,0.989c-0.082,0.4-0.176,0.801-0.266,1.2c-0.076,0.332-0.146,0.665-0.229,0.996
	c-0.1,0.403-0.213,0.806-0.32,1.208c-0.088,0.328-0.172,0.656-0.268,0.982c-0.117,0.409-0.25,0.817-0.379,1.227
	c-0.1,0.318-0.193,0.638-0.299,0.955c-0.143,0.428-0.299,0.854-0.453,1.282c-0.105,0.296-0.205,0.593-0.316,0.888
	c-0.232,0.62-0.482,1.239-0.738,1.856c-0.047,0.114-0.09,0.228-0.139,0.341c-0.307,0.73-0.631,1.458-0.971,2.184
	c-0.104,0.223-0.217,0.443-0.324,0.665c-0.242,0.503-0.484,1.008-0.742,1.509c-0.146,0.283-0.303,0.565-0.453,0.849
	c-0.232,0.437-0.463,0.873-0.707,1.309c-0.328,0.585-0.666,1.169-1.018,1.751c-0.063,0.108-0.129,0.217-0.193,0.324
	c-0.371,0.61-0.752,1.219-1.146,1.825c-0.049,0.075-0.098,0.149-0.146,0.224c-0.402,0.615-0.816,1.229-1.242,1.839
	c-0.02,0.028-0.039,0.057-0.059,0.084c-0.43,0.615-0.877,1.228-1.33,1.838c-0.072,0.098-0.146,0.196-0.219,0.294
	c-0.436,0.576-0.881,1.152-1.338,1.726c-0.115,0.145-0.23,0.288-0.348,0.431c-0.416,0.518-0.84,1.031-1.273,1.543
	c-0.078,0.093-0.154,0.187-0.232,0.278c-0.498,0.583-1.01,1.164-1.531,1.742c-0.125,0.14-0.254,0.279-0.381,0.419
	c-0.459,0.503-0.928,1.005-1.404,1.504c-0.09,0.095-0.178,0.19-0.271,0.286c-0.549,0.57-1.111,1.138-1.684,1.703
	c-0.141,0.137-0.281,0.274-0.424,0.412c-0.496,0.484-1.002,0.967-1.516,1.447c-0.109,0.104-0.217,0.206-0.326,0.309
	c-0.309,0.286-0.629,0.568-0.943,0.853c-0.402,0.364-0.803,0.729-1.215,1.089c-0.326,0.286-0.664,0.569-0.996,0.854
	c-0.406,0.348-0.811,0.696-1.227,1.042c-0.348,0.288-0.705,0.572-1.061,0.858c-0.416,0.337-0.83,0.676-1.258,1.011
	c-0.365,0.288-0.744,0.574-1.115,0.859c-0.43,0.328-0.854,0.657-1.291,0.982c-0.385,0.287-0.777,0.571-1.172,0.856
	c-0.441,0.32-0.879,0.642-1.33,0.96c-0.398,0.282-0.809,0.563-1.217,0.845c-0.455,0.313-0.91,0.629-1.373,0.939
	c-0.418,0.281-0.844,0.559-1.268,0.836c-0.471,0.309-0.938,0.616-1.416,0.922c-0.434,0.275-0.871,0.548-1.313,0.82
	c-0.484,0.303-0.971,0.605-1.465,0.905c-0.777,0.471-1.559,0.94-2.355,1.404c-1.178,0.685-2.373,1.351-3.578,2.009
	c-0.348,0.188-0.695,0.375-1.047,0.562c-0.932,0.5-1.869,0.992-2.818,1.478c-0.322,0.164-0.643,0.33-0.965,0.494
	c-1.232,0.618-2.475,1.227-3.73,1.817c-0.223,0.106-0.451,0.208-0.676,0.313c-1.057,0.492-2.121,0.976-3.193,1.451
	c-0.387,0.171-0.773,0.34-1.162,0.509c-1.045,0.453-2.096,0.897-3.154,1.334c-0.271,0.112-0.541,0.228-0.814,0.339
	c-1.307,0.531-2.627,1.049-3.955,1.554c-0.338,0.129-0.68,0.254-1.02,0.381c-1.039,0.39-2.082,0.771-3.133,1.143
	c-0.402,0.144-0.805,0.286-1.211,0.427c-1.264,0.439-2.533,0.87-3.814,1.288c-0.107,0.035-0.215,0.072-0.324,0.107
	c-1.162,0.376-2.33,0.742-3.504,1.102c-0.275,0.084-0.553,0.162-0.828,0.245c-0.904,0.271-1.811,0.542-2.723,0.803
	c-0.439,0.125-0.883,0.245-1.324,0.368c-0.752,0.209-1.502,0.42-2.258,0.623c-0.5,0.134-1.004,0.262-1.508,0.392
	c-0.701,0.185-1.402,0.367-2.107,0.544c-0.533,0.135-1.07,0.262-1.605,0.392c-0.68,0.165-1.357,0.33-2.039,0.489
	c-0.557,0.129-1.113,0.254-1.67,0.379c-0.67,0.149-1.336,0.301-2.008,0.444c-0.571,0.124-1.146,0.243-1.719,0.363
	c-0.659,0.138-1.318,0.273-1.98,0.406c-0.586,0.117-1.172,0.229-1.76,0.343c-0.657,0.127-1.314,0.252-1.975,0.372
	c-0.51,0.094-1.021,0.184-1.529,0.274c-1.135,0.2-2.271,0.394-3.41,0.579c-0.377,0.063-0.752,0.125-1.129,0.186
	c-1.477,0.232-2.957,0.455-4.442,0.663c-0.335,0.047-0.674,0.09-1.011,0.136c-1.188,0.161-2.377,0.315-3.568,0.461
	c-0.466,0.057-0.932,0.113-1.396,0.167c-1.227,0.145-2.453,0.277-3.684,0.403c-0.311,0.031-0.619,0.065-0.93,0.098
	c-1.348,0.133-2.697,0.257-4.052,0.369c-0.239,0.02-0.479,0.036-0.722,0.055c-1.121,0.091-2.242,0.176-3.367,0.252
	c-0.481,0.033-0.965,0.062-1.446,0.092c-0.886,0.056-1.771,0.107-2.657,0.154c-0.544,0.028-1.087,0.055-1.631,0.079
	c-0.832,0.039-1.667,0.074-2.501,0.106c-0.583,0.021-1.165,0.042-1.747,0.06c-0.695,0.021-1.393,0.04-2.09,0.056
	c-0.605,0.016-1.213,0.028-1.818,0.038c-0.709,0.013-1.418,0.021-2.127,0.025c-0.594,0.005-1.188,0.012-1.781,0.013
	c-0.729,0.001-1.457-0.002-2.188-0.006c-0.573-0.004-1.146-0.005-1.721-0.013c-0.752-0.009-1.504-0.024-2.258-0.039
	c-0.556-0.012-1.111-0.021-1.666-0.034c-0.687-0.019-1.371-0.043-2.058-0.066c-0.594-0.021-1.19-0.036-1.784-0.062
	c-0.683-0.027-1.363-0.063-2.044-0.095c-0.598-0.028-1.192-0.056-1.79-0.086c-0.683-0.038-1.364-0.082-2.046-0.125
	c-0.594-0.037-1.188-0.07-1.78-0.11c-0.667-0.046-1.333-0.1-1.999-0.15c-0.609-0.047-1.219-0.09-1.826-0.14
	c-0.643-0.054-1.285-0.115-1.926-0.173c-0.625-0.058-1.25-0.108-1.873-0.17c-0.677-0.065-1.351-0.142-2.026-0.211
	c-0.585-0.063-1.172-0.119-1.756-0.186c-0.997-0.11-1.991-0.231-2.985-0.354c-0.644-0.079-1.285-0.163-1.927-0.247
	c-0.864-0.113-1.728-0.227-2.589-0.349c-0.355-0.05-0.709-0.105-1.064-0.157c-0.923-0.135-1.844-0.27-2.764-0.413
	c-0.482-0.076-0.961-0.158-1.443-0.236c-0.785-0.128-1.57-0.256-2.354-0.39c-0.529-0.092-1.057-0.189-1.584-0.284
	c-0.732-0.132-1.467-0.263-2.195-0.4c-0.543-0.102-1.085-0.21-1.627-0.314c-0.713-0.141-1.426-0.279-2.137-0.425
	c-0.502-0.104-1.001-0.21-1.501-0.316c-0.824-0.174-1.647-0.351-2.467-0.533c-0.509-0.114-1.018-0.229-1.526-0.346
	c-0.808-0.187-1.613-0.376-2.417-0.569c-0.497-0.119-0.994-0.239-1.489-0.36c-0.842-0.209-1.68-0.425-2.517-0.643
	c-0.444-0.114-0.89-0.228-1.333-0.346c-1.021-0.272-2.037-0.553-3.05-0.838c-0.248-0.069-0.498-0.137-0.745-0.206
	c-1.457-0.416-2.902-0.85-4.341-1.292c-0.389-0.12-0.776-0.243-1.165-0.365c-1.158-0.364-2.311-0.737-3.457-1.119
	c-0.322-0.106-0.646-0.213-0.966-0.321c-1.405-0.477-2.8-0.966-4.184-1.47c-0.316-0.115-0.629-0.233-0.945-0.351
	c-1.116-0.412-2.225-0.834-3.327-1.265c-0.446-0.174-0.893-0.347-1.335-0.522c-0.444-0.178-0.886-0.358-1.328-0.538
	c-0.599-0.244-1.196-0.491-1.791-0.74c-0.442-0.186-0.883-0.373-1.322-0.562c-0.588-0.253-1.174-0.51-1.757-0.768
	c-0.437-0.192-0.872-0.387-1.306-0.582c-0.583-0.264-1.163-0.53-1.74-0.799c-0.425-0.199-0.851-0.396-1.274-0.597
	c-0.583-0.277-1.163-0.561-1.741-0.842c-0.409-0.2-0.818-0.397-1.224-0.602c-0.599-0.299-1.192-0.603-1.785-0.908
	c-0.377-0.192-0.756-0.385-1.13-0.58c-0.649-0.34-1.291-0.688-1.933-1.034c-0.311-0.167-0.625-0.332-0.934-0.502
	c-0.946-0.521-1.885-1.049-2.814-1.584c-31.073-17.94-46.593-41.49-46.526-65.005c-0.246,86.995-0.494,173.98-0.74,260.976
	c-0.067,23.515,15.452,47.064,46.525,65.005c0.929,0.535,1.867,1.063,2.812,1.583c0.314,0.172,0.634,0.34,0.949,0.511
	c0.636,0.346,1.272,0.688,1.916,1.025c0.379,0.198,0.763,0.392,1.144,0.588c0.589,0.302,1.177,0.604,1.771,0.9
	c0.409,0.204,0.822,0.403,1.233,0.604c0.575,0.28,1.151,0.563,1.732,0.837c0.425,0.202,0.854,0.4,1.281,0.601
	c0.576,0.268,1.152,0.533,1.732,0.795c0.437,0.197,0.875,0.393,1.314,0.586c0.581,0.258,1.163,0.512,1.749,0.763
	c0.442,0.189,0.886,0.379,1.331,0.565c0.591,0.249,1.185,0.493,1.78,0.735c0.445,0.183,0.891,0.363,1.339,0.542
	c0.218,0.088,0.433,0.179,0.652,0.266c0.223,0.087,0.451,0.168,0.674,0.255c1.105,0.432,2.217,0.854,3.337,1.269
	c0.313,0.115,0.623,0.233,0.938,0.349c1.385,0.504,2.781,0.994,4.187,1.471c0.32,0.108,0.642,0.213,0.963,0.32
	c1.147,0.382,2.301,0.756,3.461,1.12c0.387,0.122,0.773,0.244,1.162,0.362c1.44,0.444,2.886,0.878,4.344,1.294
	c0.024,0.008,0.049,0.016,0.074,0.021c0.216,0.062,0.436,0.118,0.652,0.18c1.019,0.287,2.041,0.569,3.068,0.844
	c0.441,0.117,0.885,0.229,1.328,0.345c0.838,0.219,1.677,0.434,2.52,0.643c0.495,0.122,0.991,0.241,1.487,0.36
	c0.804,0.193,1.61,0.384,2.418,0.568c0.508,0.117,1.016,0.232,1.526,0.347c0.819,0.183,1.64,0.358,2.463,0.532
	c0.326,0.069,0.65,0.146,0.977,0.212c0.176,0.036,0.354,0.069,0.53,0.104c0.71,0.146,1.422,0.286,2.135,0.425
	c0.542,0.106,1.082,0.214,1.626,0.316c0.732,0.139,1.467,0.27,2.202,0.4c0.525,0.095,1.049,0.19,1.577,0.282
	c0.786,0.136,1.576,0.264,2.365,0.393c0.478,0.078,0.954,0.158,1.433,0.234c0.926,0.146,1.855,0.28,2.784,0.416
	c0.325,0.048,0.649,0.101,0.975,0.146c0.022,0.004,0.046,0.006,0.069,0.009c0.967,0.138,1.938,0.265,2.908,0.391
	c0.282,0.037,0.562,0.078,0.845,0.113c1.253,0.159,2.508,0.308,3.766,0.449c0.39,0.043,0.779,0.08,1.169,0.122
	c0.875,0.094,1.75,0.188,2.627,0.272c0.456,0.045,0.914,0.083,1.371,0.125c0.811,0.074,1.62,0.15,2.432,0.218
	c0.047,0.005,0.092,0.01,0.137,0.014c0.463,0.038,0.927,0.067,1.389,0.104c0.76,0.06,1.52,0.12,2.281,0.172
	c0.562,0.038,1.127,0.07,1.689,0.105c0.709,0.044,1.417,0.091,2.127,0.129c0.588,0.032,1.178,0.058,1.768,0.086
	c0.686,0.033,1.373,0.067,2.061,0.096c0.594,0.023,1.189,0.041,1.785,0.063c0.686,0.021,1.369,0.047,2.055,0.064
	c0.125,0.004,0.248,0.01,0.373,0.013c0.431,0.011,0.863,0.015,1.295,0.022c0.752,0.016,1.505,0.029,2.259,0.039
	c0.573,0.008,1.146,0.01,1.72,0.013c0.729,0.005,1.458,0.008,2.188,0.006c0.595-0.001,1.188-0.007,1.781-0.013
	c0.709-0.007,1.418-0.014,2.127-0.025c0.605-0.01,1.213-0.022,1.818-0.037c0.696-0.018,1.393-0.035,2.089-0.056
	c0.289-0.011,0.578-0.015,0.867-0.023c0.293-0.011,0.588-0.026,0.881-0.037c0.834-0.031,1.667-0.067,2.5-0.104
	c0.543-0.025,1.087-0.052,1.632-0.079c0.887-0.047,1.771-0.102,2.655-0.155c0.483-0.03,0.968-0.058,1.448-0.091
	c1.124-0.077,2.248-0.161,3.369-0.252c0.24-0.021,0.479-0.035,0.72-0.057c1.353-0.111,2.703-0.235,4.053-0.368
	c0.074-0.009,0.148-0.015,0.224-0.021c0.233-0.023,0.467-0.053,0.701-0.077c1.23-0.126,2.461-0.26,3.688-0.401
	c0.466-0.056,0.931-0.11,1.396-0.168c1.191-0.146,2.383-0.3,3.568-0.462c0.337-0.045,0.675-0.088,1.012-0.136
	c1.483-0.207,2.965-0.429,4.438-0.662c0.379-0.06,0.756-0.124,1.134-0.186c1.139-0.187,2.271-0.379,3.404-0.579
	c0.253-0.045,0.509-0.083,0.761-0.13c0.261-0.046,0.517-0.098,0.774-0.146c0.656-0.12,1.313-0.245,1.969-0.37
	c0.589-0.114,1.178-0.229,1.766-0.346c0.659-0.132,1.316-0.269,1.975-0.404c0.576-0.12,1.151-0.239,1.727-0.363
	c0.668-0.146,1.332-0.295,1.996-0.444c0.561-0.126,1.121-0.251,1.68-0.381c0.68-0.159,1.355-0.323,2.031-0.487
	c0.537-0.131,1.078-0.259,1.613-0.394c0.703-0.175,1.402-0.358,2.102-0.541c0.506-0.131,1.012-0.259,1.514-0.394
	c0.756-0.203,1.506-0.413,2.256-0.622c0.441-0.123,0.885-0.243,1.324-0.369c0.918-0.263,1.828-0.533,2.736-0.808
	c0.271-0.081,0.545-0.158,0.813-0.239c1.176-0.358,2.346-0.727,3.51-1.104c0.018-0.006,0.037-0.012,0.057-0.018
	c0.084-0.028,0.168-0.059,0.254-0.085c1.285-0.42,2.561-0.853,3.83-1.293c0.402-0.142,0.803-0.282,1.203-0.426
	c1.053-0.373,2.098-0.755,3.139-1.144c0.338-0.127,0.68-0.251,1.016-0.379c1.33-0.506,2.648-1.023,3.957-1.556
	c0.271-0.11,0.543-0.227,0.814-0.339c1.059-0.437,2.109-0.881,3.152-1.334c0.391-0.169,0.777-0.339,1.164-0.51
	c1.072-0.475,2.137-0.958,3.191-1.45c0.225-0.104,0.453-0.207,0.678-0.313c1.256-0.594,2.498-1.2,3.73-1.819
	c0.322-0.163,0.645-0.33,0.967-0.494c0.947-0.483,1.887-0.976,2.818-1.476c0.348-0.188,0.697-0.374,1.047-0.563
	c1.205-0.656,2.398-1.323,3.578-2.009c0.646-0.377,1.287-0.756,1.922-1.137c0.146-0.088,0.287-0.18,0.432-0.268
	c0.496-0.3,0.98-0.602,1.467-0.904c0.439-0.272,0.879-0.545,1.311-0.821c0.479-0.305,0.947-0.613,1.418-0.921
	c0.424-0.277,0.85-0.557,1.268-0.836c0.463-0.313,0.918-0.626,1.371-0.94c0.408-0.281,0.818-0.562,1.219-0.846
	c0.451-0.317,0.891-0.639,1.33-0.96c0.393-0.285,0.787-0.568,1.172-0.855c0.438-0.326,0.861-0.653,1.289-0.981
	c0.373-0.286,0.75-0.571,1.117-0.86c0.426-0.334,0.84-0.673,1.258-1.01c0.354-0.286,0.711-0.571,1.061-0.859
	c0.414-0.346,0.818-0.692,1.225-1.042c0.334-0.284,0.672-0.565,0.998-0.853c0.412-0.361,0.813-0.728,1.215-1.09
	c0.27-0.244,0.549-0.485,0.813-0.73c0.045-0.04,0.088-0.081,0.131-0.122c0.109-0.103,0.217-0.205,0.326-0.308
	c0.514-0.48,1.02-0.962,1.516-1.446c0.141-0.138,0.285-0.277,0.424-0.415c0.572-0.563,1.133-1.13,1.684-1.699
	c0.094-0.098,0.184-0.194,0.275-0.293c0.475-0.496,0.938-0.992,1.395-1.492c0.131-0.144,0.262-0.286,0.393-0.431
	c0.518-0.575,1.025-1.151,1.521-1.73c0.086-0.1,0.168-0.198,0.25-0.3c0.426-0.503,0.844-1.009,1.254-1.516
	c0.121-0.15,0.242-0.3,0.359-0.45c0.082-0.104,0.168-0.205,0.248-0.309c0.369-0.467,0.729-0.937,1.08-1.405
	c0.076-0.102,0.15-0.203,0.229-0.305c0.451-0.608,0.895-1.219,1.324-1.83c0.021-0.03,0.041-0.062,0.063-0.091
	c0.426-0.609,0.836-1.222,1.238-1.834c0.051-0.075,0.1-0.15,0.148-0.226c0.395-0.605,0.773-1.216,1.145-1.825
	c0.064-0.106,0.131-0.216,0.195-0.323c0.314-0.524,0.625-1.052,0.924-1.578c0.031-0.059,0.061-0.115,0.092-0.174
	c0.244-0.436,0.477-0.871,0.707-1.309c0.15-0.283,0.309-0.564,0.455-0.85c0.258-0.501,0.498-1.005,0.742-1.508
	c0.105-0.223,0.221-0.442,0.322-0.665c0.34-0.727,0.664-1.454,0.973-2.185c0.049-0.113,0.09-0.228,0.137-0.341
	c0.256-0.618,0.506-1.236,0.74-1.857c0.01-0.023,0.02-0.05,0.029-0.073c0.102-0.271,0.188-0.542,0.285-0.813
	c0.154-0.427,0.311-0.854,0.453-1.282c0.105-0.316,0.199-0.637,0.299-0.954c0.129-0.408,0.262-0.816,0.381-1.227
	c0.094-0.327,0.178-0.655,0.268-0.982c0.107-0.402,0.221-0.805,0.318-1.208c0.082-0.332,0.152-0.664,0.23-0.996
	c0.09-0.399,0.184-0.8,0.266-1.2c0.016-0.069,0.031-0.14,0.047-0.209c0.053-0.261,0.092-0.521,0.141-0.78
	c0.074-0.407,0.152-0.814,0.217-1.223c0.057-0.336,0.102-0.673,0.148-1.009c0.057-0.402,0.115-0.806,0.164-1.209
	c0.041-0.339,0.072-0.679,0.105-1.019c0.041-0.4,0.082-0.802,0.111-1.202c0.027-0.34,0.047-0.681,0.066-1.021
	c0.023-0.401,0.045-0.804,0.061-1.204c0.004-0.125,0.016-0.251,0.02-0.377c0.014-0.46,0.021-0.923,0.021-1.385
	c0.018-6.324,0.035-12.648,0.055-18.975C400.503,417.156,399.933,373.728,399.25,330.298z"/>
<path fill="#1B62AE" d="M144.055,274.757c54.658,31.558,142.981,31.559,197.286,0.001c11.49-6.678,20.527-14.234,27.131-22.297
	c-4.84-13.277-15.936-25.95-33.361-36.438c-49.688-29.905-131.952-30.737-183.743-1.858c-18.462,10.294-30.554,22.977-36.228,36.389
	C121.949,259.331,131.582,267.556,144.055,274.757z"/>
<linearGradient id="SVGID_6_" gradientUnits="userSpaceOnUse" x1="176.5786" y1="411.3152" x2="307.4921" y2="280.4018" gradientTransform="matrix(1 0 0 -1 0.04 594.3394)">
	<stop  offset="0" style="stop-color:#FFFFFF"/>
	<stop  offset="1" style="stop-color:#000000"/>
</linearGradient>
<path opacity="0.82" fill="url(#SVGID_6_)" enable-background="new    " d="M144.055,274.757
	c54.658,31.558,142.981,31.559,197.286,0.001c11.49-6.678,20.527-14.234,27.131-22.297c-4.84-13.277-15.936-25.95-33.361-36.438
	c-49.688-29.905-131.952-30.737-183.743-1.858c-18.462,10.294-30.554,22.977-36.228,36.389
	C121.949,259.331,131.582,267.556,144.055,274.757z"/>
<path fill="#C2C2C2" d="M352.953,153.518c-30.447-17.579-70.146-26.484-109.924-26.729V137c35.322,0.166,70.6,8.048,97.637,23.658
	c23.109,13.343,36.498,30.191,40.15,47.581h17.688C394.671,188.253,379.49,168.84,352.953,153.518z"/>
<path fill="#005298" d="M339.949,289.627v191.896c0,2.762,2.238,5.001,5.002,5.001c2.762,0,5.002-2.239,5.002-5.001V342.58
	c0,2.763,2.238,5.002,5.002,5.002c0.188,0,0.373-0.013,0.555-0.032v25.042c0,2.764,2.24,5.003,5.002,5.003
	c2.764,0,5.002-2.239,5.002-5.003v-97.67C357.869,280.31,349.294,285.235,339.949,289.627z M323.275,390.376
	c0,2.764,2.238,5.002,5.002,5.002s5.002-2.238,5.002-5.002v-97.764c-3.252,1.386-6.588,2.711-10.004,3.969V390.376L323.275,390.376z
	"/>
<path opacity="0.23" fill="#FFFFFF" enable-background="new    " d="M344.671,477.075c0,0.769,0.621,1.39,1.389,1.39
	c0.77,0,1.391-0.621,1.391-1.39V285.904c-0.918,0.482-1.842,0.961-2.777,1.434v189.737H344.671z"/>
<path opacity="0.23" fill="#FFFFFF" enable-background="new    " d="M354.675,338.134c0,0.769,0.621,1.391,1.391,1.391
	c0.768,0,1.389-0.622,1.389-1.391v-57.915c-0.914,0.562-1.842,1.117-2.779,1.668V338.134L354.675,338.134z"/>
<path opacity="0.23" fill="#FFFFFF" enable-background="new    " d="M360.234,368.146c0,0.768,0.621,1.39,1.389,1.39
	s1.391-0.622,1.391-1.39v-91.503c-0.914,0.616-1.84,1.226-2.779,1.83V368.146L360.234,368.146z"/>
<path opacity="0.23" fill="#FFFFFF" enable-background="new    " d="M328,385.93c0,0.768,0.621,1.39,1.389,1.39
	c0.77,0,1.391-0.622,1.391-1.39v-92.267c-0.918,0.378-1.846,0.751-2.777,1.119v91.147H328z"/>
<path fill="#1B62AE" d="M336.267,277.865c-11.672,5.901-22.318,9.364-22.318,9.364l9.326,9.353l10.004-3.969
	c0,0-2.783-4.229,0.039-5.128c2.82-0.898,6.631,2.143,6.631,2.143s9.525-4.644,12.225-6.246c2.697-1.604,13.34-8.459,13.34-8.459
	l-10.773-9.113C354.738,265.808,347.681,271.836,336.267,277.865z"/>
<path opacity="0.61" fill="#010101" enable-background="new    " d="M139.405,157.914l3.55-6.891
	c-36.28,19.825-52.21,43.871-52.21,66.366c0,13.566,5.238,26.635,15.144,38.442l0.259-6.929
	c-7.044-9.727-10.939-20.367-10.939-31.514C95.208,197.631,105.917,179.853,139.405,157.914z M349.296,154.933
	c-28.568-16.355-66.506-25.363-106.82-25.363c-36.974,0-71.94,7.581-99.521,21.453l-3.55,6.891
	c26.583-14.762,62.979-23.881,103.072-23.881c81.204,0,147.271,37.394,147.271,83.356s-66.066,83.355-147.271,83.355
	c-55.537,0-114.144-20.857-136.329-51.842l-0.259,6.929c17.819,17.681,21.177,19.097,29.767,24.014
	c28.569,16.355,66.506,25.362,106.821,25.362c40.315,0,78.253-9.007,106.821-25.362c28.961-16.58,44.91-38.762,44.91-62.456
	C394.208,193.694,378.257,171.513,349.296,154.933z"/>
<path opacity="0.83" fill="#1B62AE" enable-background="new    " d="M336.267,277.865c-11.672,5.901-22.318,9.364-22.318,9.364
	l9.326,9.353l10.004-3.969c0,0-2.783-4.229,0.039-5.128c2.82-0.898,6.631,2.143,6.631,2.143s9.525-4.644,12.225-6.246
	c2.697-1.604,13.34-8.459,13.34-8.459l-10.773-9.113C354.738,265.808,347.681,271.836,336.267,277.865z"/>
<linearGradient id="SVGID_7_" gradientUnits="userSpaceOnUse" x1="316.9653" y1="313.0388" x2="362.6743" y2="313.0388" gradientTransform="matrix(1 0 0 -1 0.04 594.3394)">
	<stop  offset="0" style="stop-color:#FFFFFF"/>
	<stop  offset="1" style="stop-color:#000000"/>
</linearGradient>
<path opacity="0.45" fill="url(#SVGID_7_)" enable-background="new    " d="M351.32,281.947c1.953-1.161,8.215-5.167,11.395-7.209
	c-2.146-1.816-6.582-5.567-7.996-6.764c-2.41,1.915-8.666,6.608-17.672,11.364l-0.027,0.015c-8.295,4.193-16.135,7.185-20.014,8.578
	c2.145,2.149,5.658,5.676,6.676,6.695c1.332-0.528,5.213-2.067,7.275-2.887c-0.307-0.747-0.566-1.633-0.566-2.518
	c0-0.429,0.061-0.854,0.205-1.262c0.35-0.988,1.139-1.722,2.217-2.065c2.738-0.871,5.805,0.802,7.297,1.797
	C342.523,286.506,349.189,283.214,351.32,281.947z"/>
</svg>
