<?xml version="1.0" encoding="utf-8"?>
<!-- Generator: Adobe Illustrator 17.0.0, SVG Export Plug-In . SVG Version: 6.00 Build 0)  -->
<!DOCTYPE svg PUBLIC "-//W3C//DTD SVG 1.1//EN" "http://www.w3.org/Graphics/SVG/1.1/DTD/svg11.dtd">
<svg version="1.1" id="Layer_1" xmlns="http://www.w3.org/2000/svg" xmlns:xlink="http://www.w3.org/1999/xlink" x="0px" y="0px"
	 width="29.715px" height="27.429px" viewBox="0 0 29.715 27.429" enable-background="new 0 0 29.715 27.429" xml:space="preserve">
<path fill="#BABABA" d="M6.858,25.143h16v-4.571h-16C6.858,20.572,6.858,25.143,6.858,25.143z M6.858,13.714h16V6.857h-2.857
	c-0.476,0-0.881-0.167-1.214-0.5s-0.5-0.738-0.5-1.214V2.286H6.858L6.858,13.714L6.858,13.714z M27.43,14.857
	c0-0.309-0.113-0.577-0.339-0.804c-0.226-0.227-0.494-0.34-0.804-0.339c-0.31,0.001-0.578,0.114-0.804,0.339
	c-0.226,0.225-0.339,0.493-0.339,0.804c0,0.311,0.113,0.579,0.339,0.804c0.226,0.225,0.494,0.338,0.804,0.339
	c0.31,0.001,0.578-0.112,0.804-0.339C27.317,15.434,27.43,15.166,27.43,14.857z M29.715,14.857v7.429
	c0,0.155-0.057,0.289-0.17,0.402c-0.113,0.113-0.247,0.17-0.402,0.17h-4v2.857c0,0.476-0.167,0.881-0.5,1.214
	c-0.333,0.333-0.738,0.5-1.214,0.5H6.286c-0.476,0-0.881-0.167-1.214-0.5c-0.333-0.333-0.5-0.738-0.5-1.214v-2.857h-4
	c-0.155,0-0.289-0.057-0.402-0.17S0,22.441,0,22.286v-7.429c0-0.941,0.336-1.747,1.009-2.42s1.479-1.009,2.42-1.009h1.143V1.714
	c0-0.476,0.167-0.881,0.5-1.214S5.81,0,6.286,0h12c0.476,0,1,0.119,1.571,0.357s1.024,0.524,1.357,0.857l2.714,2.714
	c0.333,0.333,0.619,0.786,0.857,1.357c0.238,0.571,0.357,1.095,0.357,1.571v4.571h1.143c0.941,0,1.747,0.336,2.42,1.009
	c0.673,0.673,1.009,1.479,1.009,2.42L29.715,14.857z"/>
</svg>
